<ttFont>
          <CharString index="0">
            rmoveto
            -228 -3 120 -222 302 hhcurveto
            225 159 134 83 56 hvcurveto
            -55 93 rlineto
            -88 -84 -106 -63 -129 hhcurveto
            -149 -59 151 168 7 hvcurveto
            221 6 426 129 -5 320 rrcurveto
            141 -3 -94 109 -210 hhcurveto
            -349 -266 -331 -402 -4 hvcurveto
            286 143 rmoveto
            177 16 78 286 179 hhcurveto
            63 39 -47 -98 2 hvcurveto
            3 -200 -240 -111 -140 -7 rrcurveto
            return
          </CharString>
          <CharString index="1">
            rmoveto
            -291 8 143 -168 269 hhcurveto
            365 242 345 378 -10 hvcurveto
            291 -7 -145 169 -269 hhcurveto
            -364 -241 -346 -378 9 hvcurveto
            460 -334 rmoveto
            -120 -53 111 222 -5 hvcurveto
            255 -6 81 340 204 hhcurveto
            112 56 -107 -221 4 hvcurveto
            -259 6 -75 -341 -204 hhcurveto
            return
          </CharString>
          <CharString index="2">
            31 -8 75 -11 71 1 254 1 147 216 35 271 125 1023 rcurveline
            235 hlineto
            19 157 rlineto
            -233 hlineto
            16 119 23 162 30 82 104 1 rlinecurve
            70 1 43 -31 25 -18 rrcurveto
            return
          </CharString>
          <CharString index="3">
            rmoveto
            -8 -74 41 -6 31 -55 -3 -48 rlinecurve
            -3 -72 -33 -42 -37 -26 -3 -26 rcurveline
            70 -55 91 18 130 119 8 161 rlinecurve
            5 103 -60 96 -90 19 rrcurveto
            return
          </CharString>
          <CharString index="4">
            rmoveto
            -30 37 146 -34 125 hhcurveto
            225 212 102 228 169 -108 102 -105 79 hvcurveto
            -105 78 -70 70 6 93 rrcurveto
            93 7 82 33 84 hhcurveto
            117 80 -64 -24 19 hvcurveto
            40 187 rlineto
            15 -33 -117 22 -108 hhcurveto
            -233 -193 -117 -213 -174 121 -113 81 -59 hvcurveto
            100 -72 78 -61 -96 vvcurveto
            -112 -100 -21 -78 -120 -104 60 35 -44 vhcurveto
            return
          </CharString>
          <CharString index="5">
            rmoveto
            173 143 42 30 109 hvcurveto
            57 16 61 13 41 4 85 649 rcurveline
            -496 hlineto
            -16 -131 218 -17 -53 -420 rlineto
            -41 -72 -88 -11 -99 hhcurveto
            -219 -89 258 277 -2 hvcurveto
            353 -3 113 418 377 hhcurveto
            98 67 -20 -31 48 hvcurveto
            15 -220 rlineto
            187 hlineto
            62 326 -50 11 rlineto
            21 -80 -110 37 -227 hhcurveto
            -480 -318 -373 -548 10 hvcurveto
            -325 6 152 -318 380 hhcurveto
            return
          </CharString>
          <CharString index="6">
            -74 -289 rmoveto
            -49 -187 rlineto
            -13 37 103 -23 81 hhcurveto
            196 116 103 96 67 hvcurveto
            78 102 79 135 195 386 rrcurveto
            98 190 130 255 205 vvcurveto
            123 -38 80 -112 -80 -48 -48 -75 -84 37 -34 -4 -104 vhcurveto
            -15 -198 -56 -149 -91 -200 -110 -220 rcurveline
            -19 216 -21 131 -64 497 -25 131 rlinecurve
            84 -15 -38 53 -113 hhcurveto
            -121 -104 -103 -27 -18 hvcurveto
            return
          </CharString>
          <CharString index="7">
            rmoveto
            260 154 77 42 73 hvcurveto
            41 308 rlineto
            -161 hlineto
            -11 -38 -45 -140 -18 -21 rrcurveto
            -74 -58 -115 -15 -69 hhcurveto
            -216 -86 230 300 -7 hvcurveto
            316 -7 128 455 351 hhcurveto
            65 49 -14 -18 38 hvcurveto
            31 -285 rlineto
            185 hlineto
            65 384 -36 10 rlineto
            17 -68 -88 30 -201 hhcurveto
            -467 -350 -356 -560 5 hvcurveto
            -330 2 153 -318 403 hhcurveto
            return
          </CharString>
          <CharString index="8">
            rmoveto
            104 61 81 94 3 hvcurveto
            71 2 -53 67 -85 hhcurveto
            -93 -65 -77 -92 -3 hvcurveto
            -74 -2 59 -70 72 hhcurveto
            -436 hmoveto
            104 61 81 94 3 hvcurveto
            71 2 -53 67 -85 hhcurveto
            -93 -65 -77 -92 -3 hvcurveto
            -74 -2 59 -70 72 hhcurveto
            return
          </CharString>
          <CharString index="9">
            rmoveto
            1146 hlineto
            79 385 -158 23 rlineto
            hintmask 10110100
            -118 -252 -510 -30 80 591 439 -21 18 187 -441 -15 72 548 390 -20 41 -206 rlineto
            164 hlineto
            22 340 rlineto
            -1023 hlineto
            hintmask 01110100
            -11 57 callsubr
            -162 -1274 -155 -30 rlineto
            endchar
          </CharString>
          <CharString index="10">
            rmoveto
            210 117 175 157 11 hvcurveto
            1 11 1 12 -1 11 rrcurveto
            -142 hlineto
            -70 -13 -32 -114 -147 hhcurveto
            -121 -28 81 65 -7 hvcurveto
            -2 38 rlineto
            -144 hlineto
            -2 -14 -1 -15 -15 vvcurveto
            -154 88 -168 212 vhcurveto
            return
          </CharString>
          <CharString index="11">
            rmoveto
            110 71 80 94 3 hvcurveto
            72 2 -63 67 -91 hhcurveto
            -93 -80 -77 -93 -3 hvcurveto
            -74 -2 69 -69 77 hhcurveto
            return
          </CharString>
          <CharString index="12">
            151 -25 -104 -774 rlineto
            -332 -41 -116 -197 -236 hhcurveto
            -173 -89 120 203 -2 hvcurveto
            52 6 68 8 77 vhcurveto
            return
          </CharString>
          <CharString index="13">
            -107 callsubr
            endchar
          </CharString>
          <CharString index="14">
            508 hlineto
            9 97 -172 29 123 1154 67 -218 435 -1062 rlineto
            273 hlineto
            207 1400 135 25 10 105 rlineto
            -476 hlineto
            -12 -105 156 -24 -136 -1136 -69 212 -424 1053 rlineto
            -448 hlineto
            -16 -105 158 -25 -178 -1275 -142 -29 rlineto
            endchar
          </CharString>
          <CharString index="15">
            rmoveto
            324 217 221 -218 96 59 -211 342 rlineto
            -178 hlineto
            -336 12 callsubr
          </CharString>
          <CharString index="16">
            hintmask 00000000
            hintmask 01010100
            136 -82 callgsubr
            hintmask 10100100
            -89 callgsubr
            hintmask 01010100
            -92 callgsubr
            hintmask 00001010
            return
          </CharString>
          <CharString index="17">
            rmoveto
            -201 1 135 -64 137 hhcurveto
            165 106 79 76 70 hvcurveto
            -92 -15 47 -62 115 hhcurveto
            139 106 114 31 18 hvcurveto
            return
          </CharString>
          <CharString index="18">
            rmoveto
            96 36 199 112 52 106 -155 161 rcurveline
            -276 -342 rlineto
            return
          </CharString>
          <CharString index="19">
            -29 63 rlineto
            -46 -56 -21 -11 -22 hhcurveto
            -26 -12 24 52 7 hvcurveto
            126 947 rlineto
            -259 hlineto
            -122 -908 rlineto
            return
          </CharString>
          <CharString index="20">
            -37 -46 -83 -33 -51 hhcurveto
            -60 -19 23 64 36 7 52 9 70 hvcurveto
            83 615 rlineto
            233 hlineto
            21 150 rlineto
            -235 hlineto
            34 261 rlineto
            -142 hlineto
            -38 -95 -57 -121 -52 -50 -123 -47 rcurveline
            -22 -98 rlineto
            120 hlineto
            -86 -660 rlineto
            return
          </CharString>
          <CharString index="21">
            53 -374 213 11 200 300 118 175 179 298 -2 185 rlinecurve
            126 -1 -30 87 -117 hhcurveto
            -80 -47 -47 -76 -57 32 -61 -2 -85 hvcurveto
            -7 -192 -99 -202 -50 -85 -100 -166 rcurveline
            -23 181 rlineto
            return
          </CharString>
          <CharString index="22">
            rmoveto
            -92 -10 60 -49 111 hhcurveto
            148 101 115 30 21 hvcurveto
            return
          </CharString>
          <CharString index="23">
            -50 24 -323 -42 -17 -89 113 -70 -53 -365 -17 -121 -22 -140 1 -91 rlinecurve
            return
          </CharString>
          <CharString index="24">
            -20 -112 -25 -125 -2 -75 rrcurveto
            -87 -3 36 -65 130 hhcurveto
            145 99 108 27 18 hvcurveto
            -29 63 rlineto
            -37 -47 -22 -9 -20 hhcurveto
            -19 -12 17 48 1 hvcurveto
            3 89 23 118 18 102 rrcurveto
            return
          </CharString>
          <CharString index="25">
            rmoveto
            262 hlineto
            384 977 102 -977 rlineto
            261 hlineto
            620 1410 139 25 13 105 rlineto
            -508 hlineto
            -10 -105 178 -26 -393 -945 -77 -218 -9 237 rlineto
            return
          </CharString>
          <CharString index="26">
            137 245 -90 callsubr
            return
          </CharString>
          <CharString index="27">
            rmoveto
            -85 -5 56 -58 73 hhcurveto
            87 92 61 113 6 hvcurveto
            75 4 -41 51 callgsubr
            -6 hvcurveto
            return
          </CharString>
          <CharString index="28">
            15 105 rlineto
            -560 hlineto
            -10 -105 139 -23 13 -134 -327 -829 -65 -203 -29 237 -117 927 141 25 10 105 rlineto
            -551 21 callgsubr
            132 -25 rlineto
            return
          </CharString>
          <CharString index="29">
            hintmask 00000000
            hintmask 11001000
            202 hmoveto
            713 hlineto
            9 97 -229 29 61 472 521 803 113 24 13 105 rlineto
            -473 hlineto
            hintmask 10101000
            -10 -105 rlineto
            hintmask 11001000
            146 -25 -317 -540 -62 -111 -45 124 -200 527 171 25 14 105 rlineto
            -586 hlineto
            hintmask 10101000
            -11 -105 107 -25 348 -802 -60 -472 -213 -29 rlineto
            hintmask 00010100
            return
          </CharString>
          <CharString index="30">
            8 -40 -42 6 -38 hhcurveto
            -437 -225 39 callsubr
            100 -187 237 hvcurveto
            87 158 rmoveto
            -94 -57 52 callsubr
            97 357 265 47 43 -7 -19 36 hvcurveto
            -109 -725 rlineto
            -69 -50 -84 -74 -94 hhcurveto
            return
          </CharString>
          <CharString index="31">
            -94 callgsubr
            endchar
          </CharString>
          <CharString index="32">
            rmoveto
            81 91 61 174 10 166 5 88 -9 89 -29 32 -182 -46 rcurveline
            -19 -42 20 -30 11 -96 -4 -75 rlinecurve
            -6 -112 -18 -111 -22 -73 6 -25 rcurveline
            endchar
          </CharString>
          <CharString index="33">
            rmoveto
            80 65 -288 432 -178 -172 64 -112 239 -178 83 -35 rlinecurve
            endchar
          </CharString>
          <CharString index="34">
            rmoveto
            170 180 92 199 11 hvcurveto
            158 9 -115 93 -182 hhcurveto
            -153 -202 -74 -209 -11 hvcurveto
            -161 -10 107 -98 196 hhcurveto
            18 115 rmoveto
            -80 1 -70 68 6 86 6 118 85 41 88 -1 rrcurveto
            83 64 -64 -90 -5 hvcurveto
            -7 -125 -80 -35 -90 1 rrcurveto
            return
          </CharString>
          <CharString index="35">
            101 783 174 26 10 104 rlineto
            -593 21 callgsubr
            rlineto
            return
          </CharString>
          <CharString index="36">
            rmoveto
            12 callgsubr
            hintmask 01010001
            -58 callgsubr
            hintmask 01100001
            -83 callsubr
            hintmask 10010010
            -54 callsubr
            hintmask 01100001
            18 208 rlineto
            hintmask 01010001
            -7 callsubr
            endchar
          </CharString>
          <CharString index="37">
            rmoveto
            86 73 -270 342 -160 -161 52 -107 196 -111 96 -36 rlinecurve
            return
          </CharString>
          <CharString index="38">
            -105 callgsubr
            endchar
          </CharString>
          <CharString index="39">
            rmoveto
            -176 103 -139 190 258 169 226 219 172 -92 128 -205 -245 -178 -218 -212 vhcurveto
            201 2 rmoveto
            126 60 195 134 80 35 -78 -123 -122 -56 -207 -132 -86 -35 85 124 vhcurveto
            return
          </CharString>
          <CharString index="40">
            rmoveto
            hintmask 10010001
            3 callgsubr
            hintmask 01010001
            -61 callgsubr
            hintmask 10010001
            0 callsubr
            hintmask 10001001
            -11 -105 rlineto
            hintmask 10010001
            138 -25 -165 -1274 -153 -30 rlineto
            hintmask 01100001
            429 38 rmoveto
            162 1268 rlineto
            -71 callgsubr
          </CharString>
          <CharString index="41">
            29 -70 rlineto
            34 40 23 4 16 hhcurveto
            21 10 -15 -41 10 hvcurveto
            190 -1007 rlineto
            128 hlineto
            -221 -107 -110 -72 -105 hhcurveto
            return
          </CharString>
          <CharString index="42">
            -102 callgsubr
            endchar
          </CharString>
          <CharString index="43">
            rmoveto
            65 -62 4 5 rlineto
            hintmask 10010101
            22 27 47 6 27 hhcurveto
            hintmask 01010101
            -70 callgsubr
            hintmask 10010101
            -23 -29 -44 -10 -39 hhcurveto
            hintmask 10100101
            -62 callgsubr
            endchar
          </CharString>
          <CharString index="44">
            rmoveto
            189 135 144 119 73 hvcurveto
            -157 46 116 -106 214 hhcurveto
            231 162 134 83 57 hvcurveto
            -55 93 rlineto
            -88 -87 -109 -63 -133 hhcurveto
            -146 -45 131 188 5 hvcurveto
            220 6 420 127 -5 320 rrcurveto
            141 -3 -91 111 -210 hhcurveto
            -106 -97 -31 -54 -85 hvcurveto
            14 85 -101 -35 rlineto
            18 -59 -82 17 -67 hhcurveto
            -446 -256 -423 -348 -230 72 -182 229 hvcurveto
            656 593 rmoveto
            return
          </CharString>
          <CharString index="45">
            65 rmoveto
            -238 -27 -54 -224 -192 hhcurveto
            -11 -43 5 7 -18 hvcurveto
            -37 -101 rlineto
            -25 25 59 -12 72 hhcurveto
            238 204 179 344 41 hvcurveto
            return
          </CharString>
          <CharString index="46">
            1592 -89 callsubr
            return
          </CharString>
          <CharString index="47">
            rmoveto
            540 hlineto
            2 179 rlineto
            -540 hlineto
            return
          </CharString>
          <CharString index="48">
            -66 callgsubr
            -31 callgsubr
            return
          </CharString>
          <CharString index="49">
            143 -20 117 1304 129 -104 104 return
          </CharString>
          <CharString index="50">
            -220 -20 159 319 115 463 127 return
          </CharString>
          <CharString index="51">
            81 629 -106 callgsubr
            return
          </CharString>
          <CharString index="52">
            5 hmoveto
            585 hlineto
            8 97 -165 29 74 583 rlineto
            603 hlineto
            -74 -582 -177 -30 -11 -97 rlineto
            607 hlineto
            10 96 -154 31 163 1273 146 25 12 105 rlineto
            -585 hlineto
            -11 -105 163 -25 -71 -551 rlineto
            -603 hlineto
            71 551 167 -11 callsubr
            -579 hlineto
            -13 57 callsubr
            -163 -1274 -143 -30 rlineto
            return
          </CharString>
          <CharString index="53">
            19 112 31 164 80 vvcurveto
            225 -100 77 -146 -152 -141 -99 -133 -98 vhcurveto
            return
          </CharString>
          <CharString index="54">
            -75 34 57 -40 85 hhcurveto
            141 120 103 55 39 hvcurveto
            -34 66 rlineto
            -35 -41 -48 -17 -25 hhcurveto
            -31 -46 35 58 -34 hvcurveto
            -226 394 118 60 166 102 83 114 rlinecurve
            27 38 20 44 -1 53 rrcurveto
            63 -1 -46 50 -71 hhcurveto
            -62 -81 -30 -91 -7 hvcurveto
            -4 -53 -9 -51 -40 -53 -107 -143 -94 -52 -118 -79 rrcurveto
            3 hlineto
            -3 -1 rlineto
            endchar
          </CharString>
          <CharString index="55">
            -28 86 rlineto
            -989 hlineto
            -53 -369 146 -23 122 259 500 12 -146 -148 -844 -1172 rlineto
            return
          </CharString>
          <CharString index="56">
            rmoveto
            106 42 194 222 27 105 -155 116 rcurveline
            -256 -431 rlineto
            -371 -54 rmoveto
            107 52 187 203 30 113 -158 117 rcurveline
            -249 -431 rlineto
            return
          </CharString>
          <CharString index="57">
            rmoveto
            -156 -30 -11 -96 rlineto
            592 hlineto
            7 96 -189 30 170 320 rlineto
            473 hlineto
            -39 -320 -155 -30 -12 -96 rlineto
            1134 hlineto
            68 374 -158 23 -107 -241 -496 -30 76 591 418 -21 17 187 -419 -15 69 548 374 -20 41 -195 rlineto
            159 hlineto
            22 329 rlineto
            -1441 hlineto
            return
          </CharString>
          <CharString index="58">
            -90 782 rlineto
            -226 hlineto
            -271 -738 -82 -225 -18 198 -71 636 rlineto
            return
          </CharString>
          <CharString index="59">
            72 2 -48 57 -86 hhcurveto
            -83 return
          </CharString>
          <CharString index="60">
            -12 callgsubr
            130 100 59 65 67 43 callsubr
            -46 32 callgsubr
            return
          </CharString>
          <CharString index="61">
            96 -96 -43 callsubr
            return
          </CharString>
          <CharString index="62">
            rmoveto
            803 hlineto
            90 282 -103 29 -90 -135 -428 -35 rlineto
            309 196 220 183 240 vvcurveto
            119 -83 145 -268 -4 vhcurveto
            -187 -2 -189 -125 -60 -80 75 -104 rcurveline
            91 85 109 52 107 hhcurveto
            104 70 -58 -88 -236 -450 -284 -159 -90 hvcurveto
            return
          </CharString>
          <CharString index="63">
            1679 -10 callsubr
            hintmask 00010001
            -48 callsubr
            -73 -67 -93 -1 hvcurveto
            hintmask 00001001
            4 callgsubr
            hintmask 00001010
            -31 callsubr
            hintmask 00010010
            -48 callsubr
            -70 -67 -93 -2 hvcurveto
            hintmask 00001010
            5 callgsubr
            hintmask 00000000
            return
          </CharString>
          <CharString index="64">
            126 580 5 callsubr
            return
          </CharString>
          <CharString index="65">
            158 894 131 return
          </CharString>
          <CharString index="66">
            -855 -790 rmoveto
            258 169 226 219 172 -92 128 -205 -245 -178 -218 -212 -176 103 -139 190 hvcurveto
            29 108 rmoveto
            -86 -35 85 124 126 60 195 134 80 35 -78 -123 -122 -56 -207 -132 hvcurveto
            return
          </CharString>
          <CharString index="67">
            -10 callsubr
            hintmask 00001001
            -48 callsubr
            -73 -67 -93 -1 hvcurveto
            hintmask 00010001
            4 callgsubr
            hintmask 00001001
            -31 callsubr
            hintmask 00001010
            -48 callsubr
            -70 -67 -93 -2 hvcurveto
            hintmask 00010010
            5 callgsubr
            endchar
          </CharString>
          <CharString index="68">
            rmoveto
            -38 callsubr
            hintmask 11100100
            838 1175 rlineto
            hintmask 11010100
            -52 callsubr
            endchar
          </CharString>
          <CharString index="69">
            1060 hlineto
            91 407 -144 31 -155 -292 -562 -24 133 147 rlineto
            return
          </CharString>
          <CharString index="70">
            89 0 96 330 136 968 -20 return
          </CharString>
          <CharString index="71">
            -35 -252 -343 -20 103 113 483 608 -108 104 -123 -1 -590 -857 37 -95 rlineto
            520 hlineto
            return
          </CharString>
          <CharString index="72">
            96 1329 105 return
          </CharString>
          <CharString index="73">
            -50 24 -327 -52 -19 -79 114 -50 -202 -1502 rlineto
            254 hlineto
            91 654 rmoveto
            103 734 rlineto
            68 50 77 68 92 hhcurveto
            101 55 -115 -166 -274 -101 -339 -251 -51 -41 6 18 -34 hvcurveto
            return
          </CharString>
          <CharString index="74">
            -6 -59 -2 -54 1 -52 rrcurveto
            return
          </CharString>
          <CharString index="75">
            -20 -42 callsubr
            return
          </CharString>
          <CharString index="76">
            -435 hmoveto
            98 63 70 94 2 hvcurveto
            return
          </CharString>
          <CharString index="77">
            rmoveto
            -137 89 -42 99 165 143 94 62 53 vhcurveto
            return
          </CharString>
          <CharString index="78">
            1730 -23 callsubr
            return
          </CharString>
          <CharString index="79">
            -88 callgsubr
            endchar
          </CharString>
          <CharString index="80">
            hmoveto
            -25 callgsubr
          </CharString>
          <CharString index="81">
            77 78 rmoveto
            58 2 48 -80 -88 vvcurveto
            -125 -96 -149 -111 -49 vhcurveto
            -3 -21 54 -79 rlineto
            226 94 157 189 224 vvcurveto
            112 -44 134 -158 38 vhcurveto
            -124 -143 rlineto
            return
          </CharString>
          <CharString index="82">
            103 564 129 605 130 -106 122 -121 105 0 -20 return
          </CharString>
          <CharString index="83">
            115 -49 callgsubr
            return
          </CharString>
          <CharString index="84">
            rmoveto
            -85 callgsubr
            return
          </CharString>
          <CharString index="85">
            rmoveto
            -606 383 -85 -132 394 -331 -485 -336 48 -145 712 401 rlineto
            return
          </CharString>
          <CharString index="86">
            -572 -422 rmoveto
            -80 -32 108 150 255 128 368 281 26 24 -2 -6 22 hvcurveto
            -97 -622 18 20 rlineto
            -29 vlineto
            -99 -57 -108 -143 -125 hhcurveto
            endchar
          </CharString>
          <CharString index="87">
            20 112 30 164 80 vvcurveto
            225 -100 77 -146 -160 -141 -106 -141 -96 vhcurveto
            return
          </CharString>
          <CharString index="88">
            -91 callgsubr
            hintmask 00001010
            -72 callgsubr
            return
          </CharString>
          <CharString index="89">
            -513 163 330 -42 callsubr
            return
          </CharString>
          <CharString index="90">
            -23 228 -195 195 727 196 -196 231 return
          </CharString>
          <CharString index="91">
            19 114 29 163 78 vvcurveto
            220 -103 82 -143 -158 -143 -102 -142 -96 vhcurveto
            181 -16 -94 63 -135 hhcurveto
            -149 -140 -102 -131 -96 hvcurveto
            return
          </CharString>
          <CharString index="92">
            156 -21 hstemhm
            return
          </CharString>
          <CharString index="93">
            661 hlineto
            8 97 -237 29 48 407 rlineto
            -3 31 38 -1 76 hhcurveto
            389 279 226 393 -10 hvcurveto
            264 -6 -154 135 -357 hhcurveto
            return
          </CharString>
          <CharString index="94">
            45 337 rlineto
            229 hlineto
            20 175 -227 -14 36 262 -225 -23 rlineto
            return
          </CharString>
          <CharString index="95">
            617 11 -21 1411 129 -105 105 return
          </CharString>
          <CharString index="96">
            25 19 callgsubr
            return
          </CharString>
          <CharString index="97">
            rmoveto
            99 62 70 94 3 hvcurveto
            return
          </CharString>
          <CharString index="98">
            126 -16 134 480 139 687 124 return
          </CharString>
          <CharString index="99">
            -539 -21 76 -21 return
          </CharString>
          <CharString index="100">
            -50 24 -308 -52 -17 -89 102 -59 rlineto
            return
          </CharString>
          <CharString index="101">
            -144 -23 122 1329 122 return
          </CharString>
          <CharString index="102">
            -43 0 97 1303 130 -105 105 return
          </CharString>
          <CharString index="103">
            -513 151 -112 -21 475 151 -130 -21 1018 157 364 151 -145 -20 160 39 callgsubr
            return
          </CharString>
          <CharString index="104">
            189 hlineto
            681 1530 rlineto
            -189 hlineto
            return
          </CharString>
          <CharString index="105">
            hstemhm
            137 265 return
          </CharString>
          <CharString index="106">
            -20 -112 -25 -125 -2 -75 rrcurveto
            -92 -3 36 -60 130 hhcurveto
            return
          </CharString>
          <CharString index="107">
            -106 -105 -15 -1 -100 hvcurveto
            -307 hlineto
            return
          </CharString>
          <CharString index="108">
            hhcurveto
            -432 -235 -408 -348 return
          </CharString>
          <CharString index="109">
            -347 -20 164 867 152 return
          </CharString>
          <CharString index="110">
            468 -271 317 return
          </CharString>
          <CharString index="111">
            293 -272 -21 hstemhm
            return
          </CharString>
          <CharString index="112">
            169 531 124 return
          </CharString>
          <CharString index="113">
            -11 -105 rlineto
            hintmask 01110010
            138 -25 -70 -540 rlineto
            -141 hlineto
            -21 -150 rlineto
            142 hlineto
            -75 -584 -153 -30 rlineto
            return
          </CharString>
          <CharString index="114">
            98 743 rlineto
            10 45 54 5 39 hhcurveto
            192 4 84 -96 -2 -196 -3 -294 -117 -184 -252 -3 rrcurveto
            return
          </CharString>
          <CharString index="115">
            6 683 178 hstem
            240 865 vstem
            240 683 rmoveto
            847 hlineto
            18 178 rlineto
            -847 hlineto
            endchar
          </CharString>
          <CharString index="116">
            -16 122 -106 96 1304 130 -105 121 -16 -20 return
          </CharString>
          <CharString index="117">
            72 557 rlineto
            9 47 78 3 30 hhcurveto
            178 77 -80 -152 5 hvcurveto
            -238 6 -157 -100 -186 hhcurveto
            return
          </CharString>
          <CharString index="118">
            -20 -150 0 -23 -13 vvcurveto
            return
          </CharString>
          <CharString index="119">
            -342 rlineto
            endchar
          </CharString>
          <CharString index="120">
            rmoveto
            -49 77 132 -23 71 hhcurveto
            245 277 119 245 4 hvcurveto
            93 2 -52 138 -220 hhcurveto
            return
          </CharString>
          <CharString index="121">
            1718 -60 callsubr
            return
          </CharString>
          <CharString index="122">
            -138 -77 -16 -114 hhcurveto
            -249 hlineto
            return
          </CharString>
          <CharString index="123">
            -3 -20 -4 -36 -21 vvcurveto
            return
          </CharString>
          <CharString index="124">
            -55 -176 rlineto
            return
          </CharString>
          <CharString index="125">
            264 hlineto
            215 1623 -6 callgsubr
            rlineto
            395 -1387 rmoveto
            return
          </CharString>
          <CharString index="126">
            -20 -115 -22 -124 -2 -78 rrcurveto
            -85 -2 33 -66 130 hhcurveto
            150 100 117 29 21 hvcurveto
            return
          </CharString>
          <CharString index="127">
            hstemhm
            72 275 return
          </CharString>
          <CharString index="128">
            -30 62 rlineto
            -45 -54 -23 -11 -22 hhcurveto
            -19 -12 18 48 1 hvcurveto
            4 90 21 115 17 104 rrcurveto
            return
          </CharString>
          <CharString index="129">
            151 -5 39 callgsubr
            return
          </CharString>
          <CharString index="130">
            -71 118 hhcurveto
            131 100 59 65 66 43 callsubr
            -45 hhcurveto
            -31 -31 return
          </CharString>
          <CharString index="131">
            418 286 143 369 -3 hvcurveto
            -2 167 -130 135 -197 10 rrcurveto
            return
          </CharString>
          <CharString index="132">
            -21 152 -131 -23 callgsubr
            return
          </CharString>
          <CharString index="133">
            -620 -523 126 1536 -20 44 -20 return
          </CharString>
          <CharString index="134">
            -430 21 37 callgsubr
            return
          </CharString>
          <CharString index="135">
            220 62 123 131 -6 218 rrcurveto
            165 -5 -105 163 -351 hhcurveto
            return
          </CharString>
          <CharString index="136">
            -99 928 144 24 rlineto
            return
          </CharString>
          <CharString index="137">
            74 357 49 -347 169 -1053 139 15 459 1062 rlineto
            return
          </CharString>
          <CharString index="138">
            -33 -2 -110 2 -41 3 rrcurveto
            return
          </CharString>
          <CharString index="139">
            139 -25 -164 -1274 -144 -30 rlineto
            504 759 rmoveto
            return
          </CharString>
          <CharString index="140">
            -141 1509 return
          </CharString>
          <CharString index="141">
            177 15 76 286 176 hhcurveto
            64 36 -47 -98 2 hvcurveto
            return
          </CharString>
          <CharString index="142">
            -416 -186 1966 hstem
            350 193 vstem
            350 return
          </CharString>
          <CharString index="143">
            0 97 -94 -21 1400 148 -130 130 -105 105 return
          </CharString>
          <CharString index="144">
            -20 130 -97 -21 1012 159 return
          </CharString>
          <CharString index="145">
            hstemhm
            33 callsubr
            return
          </CharString>
          <CharString index="146">
            -408 -348 -240 return
          </CharString>
          <CharString index="147">
            177 -25 -316 -1274 -171 -29 rlineto
            endchar
          </CharString>
          <CharString index="148">
            324 177 342 177 hstem
            78 907 vstem
            return
          </CharString>
          <CharString index="149">
            hmoveto
            264 hlineto
            94 736 rlineto
            return
          </CharString>
          <CharString index="150">
            hvcurveto
            -31 104 rlineto
            -44 -56 -40 -23 return
          </CharString>
          <CharString index="151">
            hstemhm
            128 268 return
          </CharString>
          <CharString index="152">
            hstemhm
            133 255 return
          </CharString>
          <CharString index="153">
            149 353 93 0 -20 388 147 hstemhm
            return
          </CharString>
          <CharString index="154">
            130 1295 105 return
          </CharString>
          <CharString index="155">
            3 -200 -235 -111 -137 -7 rrcurveto
            return
          </CharString>
          <CharString index="156">
            -15 -105 314 -24 rlineto
            -251 -819 rmoveto
            return
          </CharString>
          <CharString index="157">
            -21 38 callsubr
            return
          </CharString>
          <CharString index="158">
            hstemhm
            137 279 return
          </CharString>
          <CharString index="159">
            102 180 255 return
          </CharString>
          <CharString index="160">
            hstemhm
            74 284 return
          </CharString>
          <CharString index="161">
            -20 23 callgsubr
            return
          </CharString>
          <CharString index="162">
            0 96 350 136 124 169 return
          </CharString>
          <CharString index="163">
            -20 hstemhm
            273 667 -144 870 return
          </CharString>
          <CharString index="164">
            -105 139 -25 return
          </CharString>
        <CharString name=".notdef">
          602 0 219 hstem
          228 229 960 227 vstem
          228 hmoveto
          1416 1416 -1416 hlineto
          230 -1053 rmoveto
          358 342 -359 363 123 125 357 -368 352 366 128 -124 -363 -358 363 -368 -122 -122 -362 368 -347 -368 rlineto
          endchar
        </CharString>
        <CharString name=".null">
          endchar
        </CharString>
        <CharString name="A">
          -37 callsubr
          hstem
          33 callsubr
          vstem
          -103 callgsubr
          endchar
        </CharString>
        <CharString name="AE">
          677 55 callsubr
          523 132 -124 124 -105 105 hstemhm
          -163 2049 hintmask 00000000
          hintmask 11101010
          4 126 -50 callsubr
          hintmask 11100110
          49 callsubr
          hintmask 11110010
          47 callgsubr
        </CharString>
        <CharString name="AEacute">
          673 55 callsubr
          531 124 -105 105 -15 callsubr
          -163 2049 -694 431 hintmask 00000101
          1276 -61 callsubr
          hintmask 00000000
          -1188 -1539 -50 callsubr
          hintmask 11110010
          49 callsubr
          hintmask 11101010
          47 callgsubr
        </CharString>
        <CharString name="Aacute">
          -37 callsubr
          176 50 callsubr
          -624 431 hintmask 11101000
          -103 callgsubr
          hintmask 00010100
          -32 1030 -89 callsubr
          endchar
        </CharString>
        <CharString name="Abreve">
          -37 callsubr
          121 182 38 callsubr
          -844 148 hintmask 11101000
          -103 callgsubr
          hintmask 00010100
          -36 1069 -37 callgsubr
        </CharString>
        <CharString name="Acircumflex">
          -37 callsubr
          176 50 callsubr
          -892 725 hintmask 11101000
          -103 callgsubr
          hintmask 00010100
          -300 1045 -92 callsubr
        </CharString>
        <CharString name="Adieresis">
          -37 callsubr
          169 293 -272 50 callsubr
          -893 6 callgsubr
          hintmask 11100100
          -103 callgsubr
          hintmask 00000000
          174 1117 -40 callsubr
        </CharString>
        <CharString name="Agrave">
          -37 callsubr
          176 50 callsubr
          -878 430 hintmask 11101000
          -103 callgsubr
          hintmask 00010100
          -26 1030 -17 callgsubr
        </CharString>
        <CharString name="Amacron">
          -37 callsubr
          208 179 38 callsubr
          -817 542 hintmask 11101000
          -103 callgsubr
          hintmask 00010100
          -309 1156 -60 callsubr
          endchar
        </CharString>
        <CharString name="Aogonek">
          72 58 callgsubr
          287 96 330 136 968 -20 hstemhm
          708 292 -237 218 hintmask 00000000
          hintmask 11110100
          -120 hmoveto
          515 hlineto
          7 96 -168 30 136 300 rlineto
          531 hlineto
          45 -301 -11 callgsubr
          217 hlineto
          -67 -35 -71 -40 -67 -94 -12 callgsubr
          130 100 59 65 67 hvcurveto
          -31 104 rlineto
          hintmask 11111000
          -44 -56 -40 -23 -46 32 callgsubr
          63 76 71 100 74 rrcurveto
          206 hlineto
          6 96 -158 32 rlineto
          hintmask 11110100
          -250 1402 rlineto
          hintmask 11111000
          -273 hlineto
          -680 -1405 -139 -29 rlineto
          542 466 40 callgsubr
        </CharString>
        <CharString name="Aring">
          89 0 96 330 136 1333 112 hstemhm
          518 167 91 397 -167 359 hintmask 00000000
          hintmask 11100100
          7 125 rmoveto
          -139 -29 -9 -96 rlineto
          515 hlineto
          7 96 -168 30 136 300 rlineto
          531 hlineto
          45 -301 rlineto
          hintmask 11101000
          -11 callgsubr
          hintmask 11100100
          589 hlineto
          6 96 -158 32 -245 1374 rlineto
          hintmask 11111000
          111 37 89 84 8 140 rrcurveto
          157 9 -116 87 -181 hhcurveto
          -153 -202 -67 -209 -12 hvcurveto
          -7 -116 56 -80 105 -35 rrcurveto
          hintmask 11110100
          158 92 rmoveto
          -81 1 -69 63 5 86 7 117 84 37 88 -1 rrcurveto
          83 65 -59 -90 -6 hvcurveto
          -7 -125 -80 -30 -89 1 rrcurveto
          -420 -1030 40 callgsubr
        </CharString>
        <CharString name="Atilde">
          -37 callsubr
          128 -2 callgsubr
          -141 1509 -871 746 hintmask 11100010
          -103 callgsubr
          hintmask 00000000
          -301 1135 -44 callgsubr
          hintmask 00001101
          -91 callgsubr
          hintmask 00010001
          -72 callgsubr
          endchar
        </CharString>
        <CharString name="B">
          73 25 callgsubr
          hstemhm
          970 289 -255 263 -31 callgsubr
          hintmask 1010100100000000
          4 hmoveto
          hintmask 0110100100000000
          266 hlineto
          81 120 -17 87 hhcurveto
          hintmask 1010100100000000
          24 callsubr
          hintmask 1010100010000000
          28 callsubr
          hintmask 1010001100000000
          54 callgsubr
          hintmask 1010010100000000
          -13 -105 rlineto
          hintmask 0111000100000000
          32 callsubr
          hintmask 1010100010000000
          10 callsubr
          hintmask 0111000100000000
          -52 -49 -2 3 -49 hvcurveto
          hintmask 1010100100000000
          -14 callgsubr
        </CharString>
        <CharString name="C">
          1 callgsubr
          hstem
          77 300 vstem
          635 -16 -100 callsubr
          endchar
        </CharString>
        <CharString name="CR">
          endchar
        </CharString>
        <CharString name="Cacute">
          1 callgsubr
          138 -21 hstemhm
          77 300 416 431 hintmask 11010000
          635 -16 -100 callsubr
          hintmask 00101000
          242 1608 -89 callsubr
          endchar
        </CharString>
        <CharString name="Ccaron">
          1 callgsubr
          59 400 hstemhm
          77 300 179 724 hintmask 11010000
          635 -16 -100 callsubr
          hintmask 00101000
          137 1623 22 callgsubr
        </CharString>
        <CharString name="Ccedilla">
          17 -472 155 323 -21 26 -21 1434 124 hstemhm
          77 300 238 165 hintmask 00000000
          hintmask 10111100
          364 -302 rmoveto
          -35 -142 rlineto
          -16 22 93 -12 53 hhcurveto
          183 88 75 187 12 hvcurveto
          3 68 -8 80 -16 52 186 19 116 59 61 35 41 308 rcurveline
          -161 hlineto
          -11 -38 -45 -140 -18 -21 rrcurveto
          -74 -58 -115 -15 -69 hhcurveto
          -216 -86 230 300 -7 hvcurveto
          316 -7 128 455 351 hhcurveto
          65 49 -14 -18 38 hvcurveto
          31 -285 rlineto
          185 hlineto
          65 384 -36 10 rlineto
          17 -68 -88 30 -201 hhcurveto
          -467 -350 -356 -560 5 hvcurveto
          hintmask 11011100
          2 -324 147 -312 387 -11 4 -31 1 -40 28 callgsubr
        </CharString>
        <CharString name="Ccircumflex">
          1 callgsubr
          138 -21 hstemhm
          77 300 148 725 hintmask 11010000
          635 -16 -100 callsubr
          hintmask 00101000
          -26 1623 -92 callsubr
        </CharString>
        <CharString name="Cdotaccent">
          1 callgsubr
          125 -21 hstemhm
          77 300 344 328 hintmask 00101000
          865 1652 -96 callsubr
          hintmask 11010000
          -230 -1668 -100 callsubr
          endchar
        </CharString>
        <CharString name="D">
          202 9 callsubr
          hstemhm
          1137 290 hintmask 00000000
          hintmask 10010100
          -8 hmoveto
          hintmask 01010100
          3 callgsubr
          hintmask 10010100
          -61 callgsubr
          hintmask 10001100
          0 callsubr
          hintmask 10010100
          -11 -105 rlineto
          hintmask 01100100
          138 -25 -165 -1274 -153 -30 rlineto
          hintmask 10010100
          429 38 rmoveto
          162 1268 rlineto
          -71 callgsubr
        </CharString>
        <CharString name="DC1">
          endchar
        </CharString>
        <CharString name="DC2">
          endchar
        </CharString>
        <CharString name="DC3">
          endchar
        </CharString>
        <CharString name="DC4">
          endchar
        </CharString>
        <CharString name="DEL">
          endchar
        </CharString>
        <CharString name="DLE">
          endchar
        </CharString>
        <CharString name="Dcaron">
          197 9 callsubr
          97 400 hstemhm
          535 724 -127 290 hintmask 00000110
          751 1607 -74 callgsubr
          hintmask 00000000
          -548 -1949 -67 callsubr
        </CharString>
        <CharString name="Dcroat">
          13 callgsubr
          hintmask 01101010
          -13 2 rmoveto
          3 callgsubr
          hintmask 10101010
          -61 callgsubr
          hintmask 01100110
          0 callsubr
          hintmask 01101010
          6 callsubr
          429 38 rmoveto
          73 576 rlineto
          343 hlineto
          21 150 rlineto
          -345 hlineto
          70 542 rlineto
          hintmask 10101010
          -71 callgsubr
        </CharString>
        <CharString name="Delta">
          -28 callgsubr
        </CharString>
        <CharString name="E">
          9 -56 callgsubr
          -105 105 hstemhm
          -9 1225 hintmask 00000000
          hintmask 10110100
          -9 hmoveto
          1146 hlineto
          79 385 -158 23 rlineto
          hintmask 01110100
          -118 -252 -510 -30 80 591 439 -21 18 187 -441 -15 72 548 390 -20 41 -206 rlineto
          164 hlineto
          22 340 rlineto
          -1023 hlineto
          hintmask 10101100
          -11 57 callsubr
          -162 -1274 -155 -30 rlineto
          endchar
        </CharString>
        <CharString name="Eacute">
          4 -56 callgsubr
          -15 callsubr
          -14 1225 -495 431 hintmask 00001010
          800 -61 callsubr
          hintmask 00000000
          -730 -1665 -98 callsubr
        </CharString>
        <CharString name="Ebreve">
          4 -56 callgsubr
          101 182 hstemhm
          -14 1225 -715 148 hintmask 00001010
          796 1631 -97 callsubr
          hintmask 00000000
          -810 -1631 -98 callsubr
        </CharString>
        <CharString name="Ecaron">
          4 -56 callgsubr
          77 400 hstemhm
          -14 1225 -732 724 hintmask 00001010
          695 1607 -74 callgsubr
          hintmask 00000000
          -493 -1949 -98 callsubr
        </CharString>
        <CharString name="Ecircumflex">
          4 -56 callgsubr
          -105 105 -15 callsubr
          -14 1225 -763 725 hintmask 00000000
          hintmask 10110010
          -14 hmoveto
          1146 hlineto
          79 385 -158 23 rlineto
          hintmask 01110010
          -118 -252 -510 -30 80 591 439 -21 18 187 -441 -15 72 548 390 -20 41 -206 rlineto
          164 hlineto
          22 340 rlineto
          -1023 hlineto
          hintmask 10101010
          -11 57 callsubr
          -162 -1274 -155 -30 rlineto
          hintmask 00000101
          534 1511 -92 callsubr
        </CharString>
        <CharString name="Edieresis">
          4 -56 callgsubr
          149 4 callsubr
          -14 1225 -764 6 callgsubr
          -31 callgsubr
          hintmask 0000010010000000
          1006 1679 -10 callsubr
          hintmask 0000100010000000
          -48 callsubr
          -73 -67 -93 -1 hvcurveto
          hintmask 0000010010000000
          4 callgsubr
          hintmask 0000010100000000
          -31 callsubr
          hintmask 0000100100000000
          -48 callsubr
          -70 -67 -93 -2 hvcurveto
          hintmask 0000010100000000
          5 callgsubr
          -31 callgsubr
          -585 -1679 rmoveto
          1146 hlineto
          79 385 -158 23 rlineto
          hintmask 1011001000000000
          -118 -252 -510 -30 80 591 439 -21 18 187 -441 -15 72 548 390 -20 41 -206 rlineto
          164 hlineto
          22 340 rlineto
          -1023 hlineto
          hintmask 0111001000000000
          -11 57 callsubr
          -162 -1274 -155 -30 rlineto
          endchar
        </CharString>
        <CharString name="Edotaccent">
          4 -56 callgsubr
          143 -21 hstemhm
          -14 1225 -567 328 hintmask 00001010
          788 1652 -96 callsubr
          hintmask 00000000
          -802 -1652 -98 callsubr
        </CharString>
        <CharString name="Egrave">
          4 -56 callgsubr
          -15 callsubr
          -14 1225 -749 430 hintmask 00001010
          806 1592 -70 callsubr
          hintmask 00000000
          -820 -1592 -98 callsubr
        </CharString>
        <CharString name="Emacron">
          4 -56 callgsubr
          188 179 hstemhm
          -14 1225 -688 542 hintmask 00001010
          523 14 callsubr
          hintmask 00000000
          -539 -1897 -98 callsubr
        </CharString>
        <CharString name="Eng">
          261 -41 callgsubr
          hstem
          0 1591 vstem
          0 vmoveto
          508 hlineto
          10 97 -172 29 120 1154 68 -218 472 -1062 -6 -169 -161 -117 -134 -36 rlinecurve
          42 -103 248 27 214 159 35 239 rlinecurve
          202 1400 135 25 10 105 rlineto
          -474 hlineto
          -12 -105 156 -24 -129 -1103 -66 221 -433 1011 rlineto
          -449 hlineto
          -17 -105 161 -25 -177 -1275 -143 -29 rlineto
          endchar
        </CharString>
        <CharString name="Eogonek">
          4 58 callgsubr
          287 -46 callsubr
          -105 105 hstemhm
          -14 1225 -592 237 hintmask 00000000
          hintmask 01011010
          -14 hmoveto
          881 hlineto
          hintmask 11011001
          -67 -35 -71 -40 -67 -94 -47 callsubr
          63 76 71 100 74 rrcurveto
          99 hlineto
          79 385 -158 23 rlineto
          hintmask 00111010
          -118 -252 -510 -30 80 591 439 -21 18 187 -441 -15 72 548 390 -20 41 -206 rlineto
          164 hlineto
          22 340 rlineto
          -1023 hlineto
          hintmask 01010110
          -11 57 callsubr
          -162 -1274 -155 -30 rlineto
          endchar
        </CharString>
        <CharString name="Eth">
          13 callgsubr
          hintmask 00000000
          hintmask 01101010
          -13 2 rmoveto
          3 callgsubr
          hintmask 10101010
          -61 callgsubr
          hintmask 10100110
          0 callsubr
          hintmask 10101010
          6 callsubr
          hintmask 10101010
          429 38 rmoveto
          73 576 rlineto
          343 hlineto
          21 150 rlineto
          -345 hlineto
          70 542 rlineto
          -71 callgsubr
        </CharString>
        <CharString name="Euro">
          118 -16 140 430 141 204 140 378 129 hstem
          32 1329 vstem
          32 554 rmoveto
          200 hlineto
          -310 23 141 -260 322 hhcurveto
          139 91 35 25 78 hvcurveto
          49 13 55 10 39 3 48 306 rcurveline
          -130 1 -70 -162 rlineto
          -59 -45 -88 -32 -117 hhcurveto
          -166 -89 157 273 -11 hvcurveto
          465 hlineto
          13 141 rlineto
          -478 hlineto
          3 72 6 68 10 64 rrcurveto
          511 hlineto
          19 140 rlineto
          -500 hlineto
          235 64 123 143 174 hhcurveto
          133 68 -32 -44 46 hvcurveto
          23 -154 rlineto
          121 hlineto
          59 285 -17 4 -46 9 -24 7 rlinecurve
          23 -72 -86 31 -156 hhcurveto
          -288 -266 -176 -331 -116 hvcurveto
          -172 hlineto
          -19 -140 rlineto
          153 hlineto
          -12 -64 -8 -68 -3 -72 rrcurveto
          -181 hlineto
          endchar
        </CharString>
        <CharString name="F">
          -81 0 97 1308 124 -104 105 hstemhm
          5 1242 hintmask 00000000
          hintmask 11010000
          5 hmoveto
          -15 callgsubr
          hintmask 10110000
          -13 57 callsubr
          -162 -1274 -144 -29 rlineto
          endchar
        </CharString>
        <CharString name="G">
          -9 callsubr
          hstem
          81 291 vstem
          619 -16 -102 callsubr
          endchar
        </CharString>
        <CharString name="Gbreve">
          -9 callsubr
          83 182 hstemhm
          81 291 206 148 hintmask 00010100
          878 1631 -97 callsubr
          hintmask 11101000
          -259 -1647 -102 callsubr
          endchar
        </CharString>
        <CharString name="Gcircumflex">
          -9 callsubr
          138 -21 hstemhm
          81 291 158 725 hintmask 11101000
          619 -16 -102 callsubr
          hintmask 00010100
          -5 1623 -92 callsubr
        </CharString>
        <CharString name="Gcommaaccent">
          126 -8 callsubr
          489 134 480 139 687 124 hstemhm
          81 291 230 44 callgsubr
          hintmask 11000010
          541 -156 -104 callsubr
          hintmask 00111100
          -61 28 -102 callsubr
          endchar
        </CharString>
        <CharString name="Gdotaccent">
          -9 callsubr
          125 -21 hstemhm
          81 291 354 328 hintmask 00010100
          870 1652 -96 callsubr
          hintmask 11101000
          -251 -1668 -102 callsubr
          endchar
        </CharString>
        <CharString name="H">
          49 callgsubr
          hstem
          5 1627 vstem
          -55 callsubr
          endchar
        </CharString>
        <CharString name="HT">
          endchar
        </CharString>
        <CharString name="Hbar">
          323 0 96 517 145 225 140 302 105 hstem
          -1 1625 vstem
          -1 hmoveto
          586 hlineto
          8 97 -165 29 61 487 rlineto
          603 hlineto
          -61 -486 -177 -30 -11 -97 rlineto
          607 hlineto
          10 96 -154 31 107 856 rlineto
          195 hlineto
          14 140 rlineto
          -191 hlineto
          35 277 146 25 12 105 rlineto
          -585 hlineto
          -11 -105 163 -25 -35 -277 rlineto
          -603 hlineto
          35 277 167 -11 callsubr
          -579 hlineto
          -13 57 callsubr
          -35 -277 rlineto
          -188 hlineto
          -14 -140 rlineto
          184 hlineto
          -107 -857 -143 -30 rlineto
          497 662 rmoveto
          28 225 rlineto
          603 hlineto
          -28 -225 rlineto
          endchar
        </CharString>
        <CharString name="Hcircumflex">
          49 callgsubr
          -15 callsubr
          5 1627 -1041 725 hintmask 11101000
          -55 callsubr
          hintmask 00010100
          660 1511 -92 callsubr
        </CharString>
        <CharString name="I">
          -525 -41 callgsubr
          hstem
          6 772 vstem
          -99 callgsubr
          endchar
        </CharString>
        <CharString name="IJ">
          214 -41 callgsubr
          hstemhm
          6 772 -212 953 hintmask 11100000
          -99 callgsubr
          hintmask 01010000
          888 -10 -64 callgsubr
          endchar
        </CharString>
        <CharString name="Iacute">
          10 callgsubr
          -330 431 hintmask 11010000
          -99 callgsubr
          hintmask 00101000
          515 1496 -89 callsubr
          endchar
        </CharString>
        <CharString name="Ibreve">
          -525 -41 callgsubr
          101 182 hstemhm
          6 772 -550 148 hintmask 11010000
          -99 callgsubr
          hintmask 00101000
          511 1535 -37 callgsubr
        </CharString>
        <CharString name="Icircumflex">
          10 callgsubr
          -598 725 hintmask 11010000
          -99 callgsubr
          hintmask 00101000
          247 1511 -92 callsubr
        </CharString>
        <CharString name="Idieresis">
          -525 -41 callgsubr
          149 4 callsubr
          6 772 -599 6 callgsubr
          hintmask 11001000
          -99 callgsubr
          hintmask 00000000
          721 1583 -10 callsubr
          hintmask 00010010
          -48 callsubr
          -73 -67 -93 -1 hvcurveto
          hintmask 00100010
          4 callgsubr
          hintmask 00010010
          -31 callsubr
          hintmask 00010100
          -48 callsubr
          -70 -67 -93 -2 hvcurveto
          hintmask 00100100
          5 callgsubr
          endchar
        </CharString>
        <CharString name="Idotaccent">
          -525 -41 callgsubr
          143 -21 hstemhm
          6 772 -402 328 hintmask 11010000
          -99 callgsubr
          hintmask 00101000
          503 -1 callgsubr
        </CharString>
        <CharString name="Igrave">
          10 callgsubr
          -584 430 hintmask 11010000
          -99 callgsubr
          hintmask 00101000
          521 1496 -17 callgsubr
        </CharString>
        <CharString name="Imacron">
          -525 -41 callgsubr
          188 179 hstemhm
          6 772 -523 542 hintmask 11010000
          -99 callgsubr
          hintmask 00101000
          238 1622 -60 callsubr
          endchar
        </CharString>
        <CharString name="Iogonek">
          -564 58 callgsubr
          287 -35 callsubr
          hstem
          168 21 201 355 vstem
          -21 hmoveto
          221 hlineto
          -67 -35 -72 -40 -67 -94 -26 -35 -16 -52 -1 -37 rrcurveto
          -84 -2 57 11 callgsubr
          63 76 71 99 74 rrcurveto
          208 hlineto
          7 97 -166 29 163 1274 163 -11 callsubr
          -577 hlineto
          -12 -105 140 -25 -163 -1274 -149 -30 rlineto
          endchar
        </CharString>
        <CharString name="Itilde">
          -525 -41 callgsubr
          108 -2 callgsubr
          6 772 -577 746 hintmask 11000100
          -99 callgsubr
          hintmask 00000000
          246 1601 -44 callgsubr
          hintmask 00011010
          -91 callgsubr
          hintmask 00100010
          -72 callgsubr
          endchar
        </CharString>
        <CharString name="J">
          -530 1425 105 hstem
          -178 953 vstem
          161 86 -64 callgsubr
          endchar
        </CharString>
        <CharString name="Jcircumflex">
          -530 1425 105 -15 callsubr
          -178 953 -608 725 hintmask 10100000
          161 86 -64 callgsubr
          hintmask 01010000
          90 1521 -92 callsubr
        </CharString>
        <CharString name="K">
          149 -41 callgsubr
          hstem
          -1 1472 vstem
          -1 hmoveto
          -63 callgsubr
        </CharString>
        <CharString name="Kcommaaccent">
          144 -537 -21 76 -21 503 -35 callsubr
          hstemhm
          -6 1472 -832 44 callgsubr
          hintmask 11000100
          573 -18 callgsubr
          -718 42 rmoveto
          -63 callgsubr
        </CharString>
        <CharString name="L">
          -45 0 47 callsubr
          hstem
          5 1148 vstem
          5 hmoveto
          -80 callgsubr
          endchar
        </CharString>
        <CharString name="LF">
          endchar
        </CharString>
        <CharString name="Lacute">
          -50 0 47 callsubr
          158 -21 hstemhm
          0 1148 -686 431 hintmask 00101000
          546 1594 -89 callsubr
          hintmask 11010000
          -462 -1667 rmoveto
          -80 callgsubr
          endchar
        </CharString>
        <CharString name="Lcaron">
          -50 0 130 880 640 -225 105 hstemhm
          0 1148 -181 207 hintmask 10110000
          0 vmoveto
          -80 callgsubr
          hintmask 01001000
          1012 913 -75 callsubr
        </CharString>
        <CharString name="Lcommaaccent">
          -50 -537 -21 76 -21 503 47 callsubr
          hstemhm
          0 1148 -649 44 callgsubr
          hintmask 11000100
          438 -18 callgsubr
          -577 42 rmoveto
          -80 callgsubr
          endchar
        </CharString>
        <CharString name="Ldot">
          -50 0 130 643 -21 673 105 hstemhm
          0 1148 -294 309 hintmask 10110000
          0 vmoveto
          -80 callgsubr
          hintmask 01001000
          844 798 -80 callsubr
          endchar
        </CharString>
        <CharString name="Lslash">
          -50 2 47 callsubr
          hstem
          1 1148 vstem
          1 2 rmoveto
          1058 hlineto
          90 504 -149 23 -163 -389 -409 -15 69 539 407 166 -35 127 -354 -148 77 593 185 -11 callsubr
          -598 21 callgsubr
          140 -25 -92 -714 -207 -87 36 -118 153 62 -53 -417 -143 -29 rlineto
          endchar
        </CharString>
        <CharString name="M">
          700 36 callsubr
          hstemhm
          -69 2030 -435 232 hintmask 00000000
          hintmask 10001100
          -69 hmoveto
          41 callgsubr
          hintmask 01100100
          30 callsubr
          hintmask 10100010
          18 callgsubr
          hintmask 10010010
          32 1273 rlineto
          hintmask 10001100
          -10 callgsubr
          hintmask 10010100
          40 callsubr
        </CharString>
        <CharString name="N">
          261 -41 callgsubr
          hstem
          1 1595 vstem
          1 hmoveto
          -93 callsubr
        </CharString>
        <CharString name="Nacute">
          261 -41 callgsubr
          -15 callsubr
          1 1595 -751 431 hintmask 00101000
          929 -61 callsubr
          hintmask 11010000
          -844 -1665 rmoveto
          -93 callsubr
        </CharString>
        <CharString name="Ncaron">
          261 -41 callgsubr
          77 400 hstemhm
          1 1595 -988 724 hintmask 00101000
          824 1607 -74 callgsubr
          hintmask 11010000
          -607 -1949 rmoveto
          -93 callsubr
        </CharString>
        <CharString name="Ncommaaccent">
          261 -8 callsubr
          505 -35 callsubr
          hstemhm
          1 1595 -980 44 callgsubr
          hintmask 11000100
          555 -156 -16 callgsubr
          -693 44 rmoveto
          -93 callsubr
        </CharString>
        <CharString name="Ntilde">
          261 -41 callgsubr
          108 -2 callgsubr
          1 1595 -998 746 hintmask 00000000
          hintmask 00011010
          660 -36 callgsubr
          hintmask 11000100
          -597 -1801 rmoveto
          -93 callsubr
        </CharString>
        <CharString name="O">
          -42 callgsubr
          hstem
          81 293 721 291 vstem
          -56 callsubr
          endchar
        </CharString>
        <CharString name="OE">
          1008 -20 121 -101 -43 callsubr
          -106 125 hstemhm
          79 287 hintmask 00000000
          hintmask 10110100
          632 -20 rmoveto
          217 163 90 142 112 hvcurveto
          hintmask 01110100
          -26 -212 rlineto
          996 hlineto
          79 385 -158 23 -118 -252 -518 -30 80 591 439 -21 18 187 -441 -15 70 548 395 -20 41 -206 rlineto
          159 hlineto
          21 340 rlineto
          -872 hlineto
          -33 -260 rlineto
          hintmask 10101100
          167 -69 -132 112 -225 hhcurveto
          -473 -283 -422 -498 5 hvcurveto
          hintmask 10110100
          -387 3 188 -262 362 hhcurveto
          28 121 rmoveto
          -230 1 -60 261 -4 317 rrcurveto
          hintmask 10101100
          393 -3 176 351 261 hhcurveto
          195 91 -189 -362 3 hvcurveto
          hintmask 10110100
          3 -435 -164 -338 -268 1 rrcurveto
          endchar
        </CharString>
        <CharString name="Oacute">
          -42 callgsubr
          136 -21 hstemhm
          81 293 405 431 -115 291 hintmask 00101000
          863 -61 callsubr
          hintmask 11010100
          -698 -1036 -106 callgsubr
          endchar
        </CharString>
        <CharString name="Obreve">
          -42 callgsubr
          81 182 hstemhm
          81 293 185 148 388 291 hintmask 00101000
          859 1631 -97 callsubr
          hintmask 11010100
          -778 -1002 -106 callgsubr
          endchar
        </CharString>
        <CharString name="Ocircumflex">
          -42 callgsubr
          136 -21 hstemhm
          81 293 137 725 -141 -59 callgsubr
          -73 1506 -92 callsubr
        </CharString>
        <CharString name="Odieresis">
          -42 callgsubr
          129 4 callsubr
          81 293 136 6 callgsubr
          -138 291 hintmask 00000000
          hintmask 00010010
          1069 1679 -10 callsubr
          hintmask 00100010
          -48 callsubr
          -73 -67 -93 -1 hvcurveto
          hintmask 00010010
          4 callgsubr
          hintmask 00010100
          -31 callsubr
          hintmask 00100100
          -48 callsubr
          -70 -67 -93 -2 hvcurveto
          hintmask 00010100
          5 callgsubr
          hintmask 11001001
          -553 -1050 -106 callgsubr
          endchar
        </CharString>
        <CharString name="Ograve">
          -42 callgsubr
          136 -21 hstemhm
          81 293 151 430 140 291 hintmask 00101000
          869 1592 -70 callsubr
          hintmask 11010100
          -788 -963 -106 callgsubr
          endchar
        </CharString>
        <CharString name="Ohungarumlaut">
          -42 callgsubr
          106 -21 hstemhm
          81 293 147 897 -323 -59 callgsubr
          382 1474 -57 callgsubr
        </CharString>
        <CharString name="Omacron">
          -42 callgsubr
          168 179 hstemhm
          81 293 212 542 -33 291 hintmask 00101000
          586 14 callsubr
          hintmask 11010100
          -507 -1268 -106 callgsubr
          endchar
        </CharString>
        <CharString name="Omega">
          -78 callgsubr
        </CharString>
        <CharString name="Oslash">
          173 -18 121 1325 124 hstem
          81 293 721 291 vstem
          84 -78 rmoveto
          89 -49 140 205 rlineto
          -62 86 109 -34 131 hhcurveto
          489 262 431 487 -4 hvcurveto
          -2 203 -59 186 -122 122 144 210 rcurveline
          -89 49 -135 -195 rlineto
          49 -77 -96 28 -114 hhcurveto
          -473 -287 -423 -498 5 hvcurveto
          2 -202 53 -167 101 -115 rrcurveto
          168 220 rmoveto
          -22 91 -8 108 -1 116 rrcurveto
          393 -4 174 353 261 hhcurveto
          85 65 -39 -72 47 hvcurveto
          -554 -1070 rmoveto
          604 960 28 -88 14 -111 1 -133 rlinecurve
          4 -435 -163 -338 -268 1 rrcurveto
          -105 -70 55 89 -45 hvcurveto
          endchar
        </CharString>
        <CharString name="Otilde">
          -42 callgsubr
          88 -2 callgsubr
          81 293 158 746 -183 291 hintmask 00000000
          hintmask 00011010
          594 -36 callgsubr
          hintmask 11000101
          -451 -1172 -106 callgsubr
          endchar
        </CharString>
        <CharString name="P">
          4 31 callgsubr
          hstemhm
          1010 277 hintmask 00000000
          hintmask 11010010
          4 hmoveto
          -14 callsubr
          hintmask 11000110
          -104 -79 -17 -108 hhcurveto
          -285 hlineto
          hintmask 11001010
          -13 -105 rlineto
          hintmask 11100010
          33 callgsubr
          hintmask 11010010
          7 callsubr
          hintmask 11100010
          -41 -46 1 10 -51 hvcurveto
          endchar
        </CharString>
        <CharString name="Q">
          174 -397 216 171 111 -98 -21 29 -21 1436 124 hstemhm
          79 293 215 173 333 291 hintmask 00000000
          hintmask 10101111
          594 -18 rmoveto
          -250 -44 173 -129 235 hhcurveto
          158 124 56 40 51 hvcurveto
          -2 161 rlineto
          -27 -72 -117 -14 -52 hhcurveto
          hintmask 10011111
          -141 -144 14 157 -3 hvcurveto
          410 66 217 398 -3 444 rrcurveto
          349 -3 -171 303 -376 hhcurveto
          -473 -287 -423 -498 5 hvcurveto
          hintmask 10101111
          4 -372 177 -256 334 -19 rrcurveto
          hintmask 11001111
          72 119 rmoveto
          -230 1 -61 261 -3 317 rrcurveto
          393 -4 174 353 261 hhcurveto
          195 92 -202 -351 3 hvcurveto
          4 -435 -163 -338 -268 1 rrcurveto
          endchar
        </CharString>
        <CharString name="R">
          129 -1 -25 callsubr
          hstemhm
          1009 276 hintmask 00000000
          hintmask 11010010
          14 hmoveto
          -86 callgsubr
          hintmask 11000110
          15 callsubr
          hintmask 11001010
          -12 -105 rlineto
          hintmask 11100010
          -24 callgsubr
          hintmask 11010010
          -51 callgsubr
          hintmask 11100010
          31 callsubr
          endchar
        </CharString>
        <CharString name="RS">
          endchar
        </CharString>
        <CharString name="Racute">
          124 -1 -25 callsubr
          176 -21 hstemhm
          771 431 -198 276 -31 callgsubr
          hintmask 1101000010000000
          9 hmoveto
          -86 callgsubr
          hintmask 1100010010000000
          15 callsubr
          hintmask 1100100010000000
          -12 -105 rlineto
          hintmask 1110000010000000
          -24 callgsubr
          hintmask 1101000010000000
          -51 callgsubr
          hintmask 1110000010000000
          31 callsubr
          hintmask 0000001100000000
          352 797 -89 callsubr
          endchar
        </CharString>
        <CharString name="Rcaron">
          124 -1 -25 callsubr
          97 400 hstemhm
          534 724 -254 276 hintmask 0000001100000000
          750 1607 -74 callgsubr
          -31 callgsubr
          -525 -1949 rmoveto
          -86 callgsubr
          hintmask 1101000010000000
          15 callsubr
          hintmask 1100010010000000
          -12 -105 rlineto
          hintmask 1100100010000000
          -24 callgsubr
          hintmask 1110000010000000
          -51 callgsubr
          hintmask 1101000010000000
          31 callsubr
          endchar
        </CharString>
        <CharString name="Rcommaaccent">
          124 -8 callsubr
          504 -25 callsubr
          hstemhm
          626 223 155 276 -31 callgsubr
          hintmask 1100000010000000
          565 -156 -104 callsubr
          -31 callgsubr
          -695 44 rmoveto
          -86 callgsubr
          hintmask 0011010001000000
          15 callsubr
          hintmask 0011000101000000
          -12 -105 rlineto
          hintmask 0011001001000000
          -24 callgsubr
          hintmask 0011100001000000
          -51 callgsubr
          hintmask 0011010001000000
          31 callsubr
          endchar
        </CharString>
        <CharString name="S">
          -6 callsubr
          hstem
          180 257 329 263 vstem
          35 70 -69 callsubr
        </CharString>
        <CharString name="Sacute">
          -6 callsubr
          136 -21 hstemhm
          180 257 206 431 -308 263 hintmask 11010100
          35 70 -105 callgsubr
          hintmask 00101000
          642 1224 -89 callsubr
          endchar
        </CharString>
        <CharString name="Scaron">
          -6 callsubr
          57 400 hstemhm
          180 257 -31 724 -364 263 hintmask 11010100
          35 70 -105 callgsubr
          hintmask 00101000
          537 1239 22 callgsubr
        </CharString>
        <CharString name="Scedilla">
          -132 -474 155 299 119 1329 122 hstemhm
          186 257 -41 165 205 263 hintmask 00000000
          hintmask 11101100
          41 70 rmoveto
          40 -32 148 -46 171 -12 4 -30 1 -39 -3 -48 -68 callgsubr
          3 65 -7 75 -15 52 308 23 181 186 -2 247 -2 206 -156 124 -164 103 rrcurveto
          hintmask 11110100
          -168 106 -105 91 3 155 rrcurveto
          146 4 100 61 132 hhcurveto
          76 62 -19 -34 47 hvcurveto
          29 -187 rlineto
          148 hlineto
          50 282 rlineto
          37 -59 -123 43 -204 hhcurveto
          -294 -227 -161 -277 2 hvcurveto
          2 -213 162 -133 169 -108 161 -103 96 -87 -4 -146 rrcurveto
          -146 -5 -118 -77 -162 hhcurveto
          -89 -75 30 38 -53 hvcurveto
          -18 201 rlineto
          -161 hlineto
          endchar
        </CharString>
        <CharString name="Scircumflex">
          -6 callsubr
          136 -21 hstemhm
          180 257 -62 725 -334 263 hintmask 11010100
          35 70 -105 callgsubr
          hintmask 00101000
          374 1239 -92 callsubr
        </CharString>
        <CharString name="T">
          73 0 38 callgsubr
          hstem
          92 1333 vstem
          214 hmoveto
          791 -83 callgsubr
        </CharString>
        <CharString name="Tbar">
          -45 0 100 601 140 568 121 hstem
          37 1333 vstem
          159 hmoveto
          791 hlineto
          8 100 -266 26 77 575 rlineto
          264 hlineto
          16 140 rlineto
          -261 hlineto
          77 568 277 -26 23 -342 145 8 60 481 rlineto
          -1255 hlineto
          -78 -482 151 1 120 333 281 27 -76 -568 rlineto
          -240 hlineto
          -16 -140 rlineto
          237 hlineto
          -77 -575 -247 -26 rlineto
          endchar
        </CharString>
        <CharString name="Tcaron">
          53 0 38 callgsubr
          77 400 hstemhm
          82 1333 -918 724 hintmask 00101000
          713 1607 -74 callgsubr
          hintmask 11010000
          -293 -1949 rmoveto
          791 -83 callgsubr
        </CharString>
        <CharString name="Thorn">
          -8 0 96 250 125 618 122 214 105 hstem
          974 264 vstem
          4 hmoveto
          594 hlineto
          8 97 -174 29 28 224 rlineto
          -3 29 39 -1 75 hhcurveto
          452 187 241 268 -4 hvcurveto
          205 -3 -118 151 -346 hhcurveto
          -69 -69 -5 -6 -65 hvcurveto
          25 200 166 25 12 105 rlineto
          -579 hlineto
          -13 57 callsubr
          -161 -1274 -143 -30 rlineto
          462 379 rmoveto
          76 599 rlineto
          9 46 61 6 46 hhcurveto
          196 68 -90 -179 5 hvcurveto
          -221 6 -141 -128 -229 hhcurveto
          -46 -41 0 4 -47 hvcurveto
          endchar
        </CharString>
        <CharString name="U">
          -58 callsubr
          51 callsubr
          hintmask 00000000
          hintmask 10110000
          137 428 -95 callgsubr
          hintmask 11010000
          -95 callsubr
          hintmask 10110000
          -72 callsubr
          hintmask 11010000
          -32 callgsubr
          hintmask 10110000
          -33 callsubr
          endchar
        </CharString>
        <CharString name="US">
          endchar
        </CharString>
        <CharString name="Uacute">
          -58 callsubr
          156 -21 51 callsubr
          391 431 hintmask 00010100
          891 -61 callsubr
          hintmask 00000000
          -670 -1237 -96 callgsubr
        </CharString>
        <CharString name="Ubreve">
          -58 callsubr
          101 182 51 callsubr
          171 148 hintmask 00010100
          887 1631 -97 callsubr
          hintmask 00000000
          -750 -1203 -96 callgsubr
        </CharString>
        <CharString name="Ucircumflex">
          -58 callsubr
          156 -21 51 callsubr
          123 725 hintmask 00000000
          hintmask 10101000
          137 428 -95 callgsubr
          hintmask 11001000
          -95 callsubr
          hintmask 10101000
          -72 callsubr
          hintmask 11001000
          -32 callgsubr
          hintmask 10101000
          -33 callsubr
          hintmask 00010100
          486 1179 -92 callsubr
        </CharString>
        <CharString name="Udieresis">
          -58 callsubr
          149 4 callsubr
          137 279 122 6 callgsubr
          hintmask 00000000
          hintmask 00001001
          1097 -44 callsubr
          -525 -1251 -95 callgsubr
          hintmask 10100100
          -95 callsubr
          hintmask 11000100
          -72 callsubr
          hintmask 10100100
          -32 callgsubr
          hintmask 11000100
          -33 callsubr
          endchar
        </CharString>
        <CharString name="Ugrave">
          -58 callsubr
          156 -21 51 callsubr
          137 430 hintmask 00010100
          897 1592 -70 callsubr
          hintmask 00000000
          -760 -1164 -96 callgsubr
        </CharString>
        <CharString name="Uhungarumlaut">
          -58 callsubr
          126 -21 51 callsubr
          133 897 hintmask 00000000
          hintmask 10101000
          137 428 -95 callgsubr
          hintmask 11001000
          -95 callsubr
          hintmask 10101000
          -72 callsubr
          hintmask 11001000
          -32 callgsubr
          hintmask 10101000
          -33 callsubr
          hintmask 00010100
          941 1147 -57 callgsubr
        </CharString>
        <CharString name="Umacron">
          -58 callsubr
          188 179 51 callsubr
          198 542 hintmask 00010100
          614 14 callsubr
          hintmask 00000000
          -479 -1469 -96 callgsubr
        </CharString>
        <CharString name="Uogonek">
          109 58 callgsubr
          267 117 1304 129 -104 104 hstemhm
          120 279 52 242 hintmask 00000000
          hintmask 11011100
          120 428 rmoveto
          -262 2 140 -186 355 8 8 1 8 hhcurveto
          -52 -38 -54 -49 -46 -68 34 callgsubr
          103 59 65 63 hvcurveto
          -31 104 rlineto
          -44 -54 -42 -23 -45 hhcurveto
          -31 -31 23 61 2 hvcurveto
          53 60 81 73 74 vhcurveto
          230 63 138 188 48 371 101 774 rcurveline
          126 24 13 105 rlineto
          -458 hlineto
          -11 -105 rlineto
          hintmask 11101100
          -95 callsubr
          hintmask 11011100
          -72 callsubr
          hintmask 11101100
          -32 callgsubr
          hintmask 11011100
          -33 callsubr
          endchar
        </CharString>
        <CharString name="Uring">
          -58 callsubr
          -51 113 303 112 51 callsubr
          165 167 321 167 hintmask 00000000
          hintmask 10100100
          137 428 -95 callgsubr
          hintmask 11000100
          -95 callsubr
          hintmask 10100100
          -72 callsubr
          hintmask 11000100
          -32 callgsubr
          hintmask 10100100
          -33 callsubr
          hintmask 00011011
          743 1051 -45 callgsubr
        </CharString>
        <CharString name="Utilde">
          -58 callsubr
          108 -2 callgsubr
          137 279 144 746 hintmask 00000000
          hintmask 00001101
          622 1697 -44 callgsubr
          hintmask 00010001
          -91 callgsubr
          hintmask 00000101
          -72 callgsubr
          hintmask 00000000
          -423 -1373 -95 callgsubr
          hintmask 10100010
          -95 callsubr
          hintmask 11000010
          -72 callsubr
          hintmask 10100010
          -32 callgsubr
          hintmask 11000010
          -33 callsubr
          endchar
        </CharString>
        <CharString name="V">
          -35 5 -21 1416 130 -105 105 hstemhm
          26 1402 hintmask 00000000
          hintmask 10110000
          387 -16 rmoveto
          247 6 643 1411 137 24 14 105 rlineto
          -492 hlineto
          -10 -105 rlineto
          hintmask 11010000
          162 -25 -411 -920 -85 -244 -24 244 -130 920 rlineto
          hintmask 10110000
          157 25 10 105 rlineto
          -567 hlineto
          -12 -105 126 -25 rlineto
          endchar
        </CharString>
        <CharString name="W">
          -12 callsubr
          hstemhm
          5 2128 hintmask 00000000
          hintmask 10110000
          352 -10 -82 callsubr
          hintmask 11010000
          29 callsubr
          hintmask 10110000
          -79 callsubr
          endchar
        </CharString>
        <CharString name="Wacute">
          -12 callsubr
          -15 callsubr
          5 2128 -1070 431 hintmask 00010100
          1147 -61 callsubr
          hintmask 00000000
          -711 -1675 -82 callsubr
          hintmask 10101000
          29 callsubr
          hintmask 11001000
          -79 callsubr
          endchar
        </CharString>
        <CharString name="Wcircumflex">
          -12 callsubr
          -15 callsubr
          5 2128 -1338 725 hintmask 00000000
          hintmask 10101000
          352 -10 -82 callsubr
          hintmask 11001000
          29 callsubr
          hintmask 10101000
          -79 callsubr
          hintmask 00010100
          742 207 -92 callsubr
        </CharString>
        <CharString name="Wdieresis">
          -12 callsubr
          149 4 callsubr
          5 2128 -1339 6 callgsubr
          hintmask 00000000
          hintmask 00001001
          1353 -44 callsubr
          -566 -1689 -82 callsubr
          hintmask 10100100
          29 callsubr
          hintmask 11000100
          -79 callsubr
          endchar
        </CharString>
        <CharString name="Wgrave">
          -12 callsubr
          -15 callsubr
          5 2128 -1324 430 hintmask 00010100
          1153 1592 -70 callsubr
          hintmask 00000000
          -801 -1602 -82 callsubr
          hintmask 10101000
          29 callsubr
          hintmask 11001000
          -79 callsubr
          endchar
        </CharString>
        <CharString name="X">
          72 0 97 1328 105 hstem
          -69 1501 vstem
          -69 hmoveto
          497 hlineto
          9 96 -150 30 333 492 203 -492 -154 -29 -8 -97 rlineto
          614 hlineto
          9 97 -140 29 -329 667 470 608 137 24 10 105 rlineto
          -496 hlineto
          -9 -105 137 -25 -317 -475 -185 476 144 24 10 105 rlineto
          -589 hlineto
          -10 -105 129 -26 303 -640 -489 -633 -118 -29 rlineto
          endchar
        </CharString>
        <CharString name="Y">
          -5 callsubr
          hstemhm
          30 1373 hintmask 00000000
          hintmask 11010000
          202 hmoveto
          713 hlineto
          9 97 -229 29 61 472 521 803 113 24 13 105 rlineto
          -473 hlineto
          hintmask 10110000
          -10 -105 rlineto
          hintmask 11010000
          146 -25 -317 -540 -62 -111 -45 124 -200 527 171 25 14 105 rlineto
          -586 hlineto
          hintmask 10110000
          -11 -105 107 -25 348 -802 -60 -472 -213 -29 rlineto
          endchar
        </CharString>
        <CharString name="Yacute">
          -5 callsubr
          -15 callsubr
          30 1373 -711 431 -78 callsubr
          564 1495 -89 callsubr
          endchar
        </CharString>
        <CharString name="Ycircumflex">
          -5 callsubr
          -15 callsubr
          30 1373 -979 725 -78 callsubr
          296 1510 -92 callsubr
        </CharString>
        <CharString name="Ydieresis">
          -5 callsubr
          149 4 callsubr
          30 1373 -980 6 callgsubr
          hintmask 00000000
          hintmask 11000100
          202 hmoveto
          713 hlineto
          9 97 -229 29 61 472 521 803 113 24 13 105 rlineto
          -473 hlineto
          hintmask 10100100
          -10 -105 rlineto
          hintmask 11000100
          146 -25 -317 -540 -62 -111 -45 124 -200 527 171 25 14 105 rlineto
          -586 hlineto
          hintmask 10100100
          -11 -105 107 -25 348 -802 -60 -472 -213 -29 rlineto
          hintmask 00000000
          770 1582 -40 callsubr
        </CharString>
        <CharString name="Ygrave">
          -5 callsubr
          -15 callsubr
          30 1373 -965 430 -78 callsubr
          570 1495 -17 callgsubr
        </CharString>
        <CharString name="Z">
          -8 callgsubr
          hstemhm
          -33 1292 hintmask 00000000
          hintmask 11101000
          -2 hmoveto
          -38 callsubr
          hintmask 11011000
          838 1175 rlineto
          hintmask 11101000
          -52 callsubr
          endchar
        </CharString>
        <CharString name="Zacute">
          -8 callgsubr
          -15 callsubr
          -33 1292 -571 431 hintmask 00000000
          hintmask 11100100
          -2 hmoveto
          -38 callsubr
          hintmask 11010100
          838 1175 rlineto
          hintmask 11100100
          -52 callsubr
          hintmask 00001010
          805 1503 -89 callsubr
          endchar
        </CharString>
        <CharString name="Zcaron">
          -8 callgsubr
          77 400 hstemhm
          -33 1292 -808 724 hintmask 00001010
          667 1607 -74 callgsubr
          hintmask 00000000
          -453 -1949 -39 callsubr
        </CharString>
        <CharString name="Zdotaccent">
          -8 callgsubr
          143 -21 hstemhm
          -33 1292 -643 328 hintmask 00001010
          760 1652 -96 callsubr
          hintmask 00000000
          -762 -1652 -39 callsubr
        </CharString>
        <CharString name="a">
          -76 -32 callsubr
          hstem
          72 275 vstem
          -107 callgsubr
          endchar
        </CharString>
        <CharString name="aacute">
          -76 -32 callsubr
          78 502 20 callsubr
          284 484 hintmask 11010000
          -107 callgsubr
          hintmask 00101000
          207 1103 24 callgsubr
        </CharString>
        <CharString name="abreve">
          -76 -32 callsubr
          137 182 20 callsubr
          103 148 hintmask 11010000
          -107 callgsubr
          hintmask 00101000
          249 1162 -98 callgsubr
        </CharString>
        <CharString name="acircumflex">
          -76 -32 callsubr
          65 432 20 callsubr
          29 725 hintmask 11010000
          -107 callgsubr
          hintmask 00101000
          -44 1091 -28 callsubr
        </CharString>
        <CharString name="acute">
          -711 1241 502 hstem
          50 484 vstem
          128 1241 24 callgsubr
        </CharString>
        <CharString name="acute.cap">
          -743 1686 -21 hstem
          57 431 vstem
          141 -61 callsubr
          endchar
        </CharString>
        <CharString name="adieresis">
          -76 -32 callsubr
          20 callsubr
          vstemhm
          -107 callgsubr
          462 1225 -34 callgsubr
        </CharString>
        <CharString name="ae">
          441 -20 159 -159 171 307 115 459 131 -127 127 hstemhm
          72 273 402 279 372 263 hintmask 00000000
          hintmask 10110111
          373 -20 -63 callsubr
          hintmask 10101111
          34 callsubr
          hintmask 10110111
          48 callsubr
          hintmask 01110111
          -21 callsubr
        </CharString>
        <CharString name="aeacute">
          444 -20 159 319 115 459 131 -127 127 78 502 hstemhm
          74 273 402 279 -200 484 88 263 hintmask 0000100100000000
          906 1241 -87 callgsubr
          -31 callgsubr
          -453 -1332 -63 callsubr
          hintmask 1110011010000000
          34 callsubr
          hintmask 1101011010000000
          48 callsubr
          hintmask 1110011010000000
          -21 callsubr
        </CharString>
        <CharString name="afii61352">
          1257 0 163 378 123 734 135 -123 12 0 104 -104 111 hstemhm
          1608 235 413 238 hintmask 00000000
          hintmask 11000111
          1608 1004 rmoveto
          -283 -15 149 -180 255 hhcurveto
          208 272 154 379 17 hvcurveto
          283 15 -147 176 -256 hhcurveto
          -219 -262 -167 -362 -17 hvcurveto
          -1611 -1004 rmoveto
          523 hlineto
          8 96 -183 29 122 1163 104 -274 396 -1014 rlineto
          294 hlineto
          179 1398 142 24 rlineto
          hintmask 11001011
          10 104 rlineto
          -490 hlineto
          hintmask 11000111
          -10 -104 rlineto
          hintmask 11100011
          165 -24 -130 -1143 -89 259 rlineto
          hintmask 11001011
          -393 1012 rlineto
          -479 hlineto
          hintmask 11000111
          -12 -104 rlineto
          hintmask 11100011
          163 -24 -165 -1273 -147 -29 rlineto
          1838 910 rmoveto
          hintmask 11010011
          11 218 58 185 173 1 125 1 56 -134 -10 -207 -11 -287 -85 -118 -145 -1 rrcurveto
          hintmask 11100011
          -126 -1 -57 137 11 206 rrcurveto
          -306 -1006 rmoveto
          803 hlineto
          12 163 rlineto
          -803 hlineto
          endchar
        </CharString>
        <CharString name="agrave">
          -76 -32 callsubr
          83 497 20 callsubr
          -19 466 hintmask 11010000
          -107 callgsubr
          hintmask 00101000
          212 1108 -74 callsubr
        </CharString>
        <CharString name="amacron">
          -76 -32 callsubr
          252 179 20 callsubr
          105 542 hintmask 11010000
          -107 callgsubr
          hintmask 00101000
          -50 1277 -60 callsubr
          endchar
        </CharString>
        <CharString name="ampersand">
          403 -27 126 -98 -21 636 195 -171 191 615 113 hstemhm
          60 275 11 260 359 259 -44 226 -31 callgsubr
          hintmask 1000110100000000
          60 354 rmoveto
          -253 255 -128 305 129 129 23 45 115 vhcurveto
          hintmask 0100110100000000
          -40 67 80 -21 94 hhcurveto
          95 62 5 24 75 hvcurveto
          6 105 -57 -3 -84 14 -55 24 rlinecurve
          -14 7 -18 11 -18 13 rrcurveto
          hintmask 1010110010000000
          110 98 70 132 161 vvcurveto
          17 -1 15 -1 15 vhcurveto
          -1 15 14 -1 14 hhcurveto
          159 59 167 185 -28 hvcurveto
          -95 hlineto
          -123 -19 -50 -34 -106 hhcurveto
          hintmask 1001110010000000
          -92 -62 20 -75 hhcurveto
          -88 -49 -31 -18 -18 hvcurveto
          -180 vlineto
          19 29 60 19 63 hhcurveto
          12 12 0 -1 12 hvcurveto
          5 -32 4 -37 -43 vvcurveto
          -101 -22 -85 -46 -67 vhcurveto
          -3 4 -148 135 -110 144 -127 226 rlinecurve
          hintmask 1000111100000000
          239 121 261 113 251 vvcurveto
          151 -106 140 -274 -283 -215 -162 -266 -104 38 -137 46 -109 vhcurveto
          hintmask 1000110100000000
          -196 -92 -174 -110 -225 vvcurveto
          hintmask 1000111100000000
          609 537 rmoveto
          -31 74 -32 101 111 vvcurveto
          151 67 118 155 111 26 -107 -90 -179 -133 -97 -163 -82 vhcurveto
          hintmask 1000110100000000
          -334 -514 rmoveto
          117 66 86 96 71 vhcurveto
          112 -189 92 -163 186 -173 rrcurveto
          -18 -66 -77 -9 -91 hhcurveto
          -177 -141 93 185 hvcurveto
          endchar
        </CharString>
        <CharString name="aogonek">
          -76 58 callgsubr
          267 158 -127 -21 1042 131 20 callsubr
          220 238 hintmask 00000000
          hintmask 11011000
          72 407 rmoveto
          -240 104 -187 237 134 103 67 71 65 vhcurveto
          2 -3 rlineto
          hintmask 10111100
          -3 -67 31 -41 52 -17 -61 -33 -65 -41 -61 -85 -25 -35 -17 52 callgsubr
          -1 56 11 callgsubr
          68 89 77 111 81 59 33 40 45 12 18 -30 63 rcurveline
          -37 -47 -25 -9 -18 hhcurveto
          -23 -18 22 54 6 hvcurveto
          130 956 -135 -39 rlineto
          20 -59 -87 19 -72 hhcurveto
          hintmask 11011000
          -432 -235 -408 -348 hvcurveto
          430 -269 rmoveto
          -95 -60 107 180 255 100 352 264 37 34 -5 -11 30 hvcurveto
          -102 -765 rlineto
          -59 -51 -75 -54 -82 hhcurveto
          endchar
        </CharString>
        <CharString name="approxequal">
          -244 271 204 -37 199 80 204 -37 199 hstemhm
          23 949 -899 949 hintmask 00000000
          hintmask 01001000
          101 331 50 callgsubr
          hintmask 10001000
          -33 callgsubr
          hintmask 01001000
          -3 callgsubr
          hintmask 00000000
          128 350 50 callgsubr
          hintmask 00010100
          -33 callgsubr
          hintmask 00100100
          -3 callgsubr
          endchar
        </CharString>
        <CharString name="aring">
          -76 -32 callsubr
          90 115 313 114 20 callsubr
          112 167 321 166 hintmask 11001000
          -107 callgsubr
          hintmask 00110110
          250 1115 -73 callsubr
          endchar
        </CharString>
        <CharString name="asciicircum">
          94 1531 -20 hstem
          157 1010 vstem
          157 510 rmoveto
          215 hlineto
          388 742 197 -742 rlineto
          210 hlineto
          -267 1021 rlineto
          -227 hlineto
          endchar
        </CharString>
        <CharString name="asciitilde">
          -133 706 204 -37 199 hstemhm
          130 949 hintmask 00000000
          hintmask 01100000
          208 766 50 callgsubr
          hintmask 10100000
          -33 callgsubr
          hintmask 01100000
          -3 callgsubr
          endchar
        </CharString>
        <CharString name="asterisk">
          96 1149 -20 22 -20 552 -21 hstemhm
          250 1034 hintmask 00000000
          hintmask 01110000
          336 800 rmoveto
          300 211 70 58 -25 -85 -79 -346 222 -1 -7 345 -9 90 62 -60 254 -210 128 185 rlineto
          hintmask 10110000
          -309 134 -79 28 87 30 333 134 -86 187 -300 -211 -71 -56 24 84 80 345 -222 1 7 -344 9 -88 -61 57 -254 211 -128 -185 rlineto
          hintmask 01110000
          309 -135 79 -28 -87 -29 -333 -134 rlineto
          endchar
        </CharString>
        <CharString name="at">
          699 -433 151 288 163 -162 191 768 139 305 150 hstemhm
          88 187 234 215 444 197 350 175 -31 callgsubr
          hintmask 1101111110000000
          88 336 rmoveto
          -528 364 -241 454 172 155 47 70 93 vhcurveto
          -37 97 rlineto
          -32 -66 -168 -31 -114 hhcurveto
          -355 -311 196 494 490 310 512 525 296 309 -152 -427 -313 -159 -349 -168 -10 -10 11 36 41 -8 55 10 103 hvcurveto
          19 201 51 317 39 153 -185 -40 rcurveline
          39 -56 -102 20 -55 hhcurveto
          -380 -189 -362 -305 -3 hvcurveto
          hintmask 1011111110000000
          -297 -3 156 -134 150 hhcurveto
          148 151 222 213 90 hvcurveto
          -21 -91 -12 -94 -47 vvcurveto
          hintmask 1101111110000000
          -119 17 -85 90 290 325 341 564 404 -284 245 -408 -565 -545 -491 -733 vhcurveto
          hintmask 1011111110000000
          636 111 rmoveto
          238 88 281 251 55 91 -35 -50 28 vhcurveto
          -217 -27 -236 -466 -124 hhcurveto
          -91 -35 127 122 hvcurveto
          endchar
        </CharString>
        <CharString name="atilde">
          -76 -32 callsubr
          170 48 callgsubr
          72 275 35 746 hintmask 11001000
          -107 callgsubr
          hintmask 00000000
          -58 1254 -44 callgsubr
          hintmask 00010100
          -91 callgsubr
          hintmask 00100100
          -72 callgsubr
          endchar
        </CharString>
        <CharString name="b">
          -80 -20 130 894 159 364 -20 hstem
          843 273 vstem
          -52 callgsubr
          endchar
        </CharString>
        <CharString name="backslash">
          -416 -362 1959 hstem
          76 778 vstem
          652 -362 rmoveto
          202 hlineto
          -577 1959 rlineto
          -201 hlineto
          endchar
        </CharString>
        <CharString name="bar">
          35 callsubr
          -186 rmoveto
          193 1966 -193 hlineto
          endchar
        </CharString>
        <CharString name="braceleft">
          -236 -208 153 1656 149 hstem
          129 891 vstem
          254 -65 rmoveto
          -110 -1 84 -33 125 hhcurveto
          110 74 21 26 91 hvcurveto
          0 11 91 3 15 vhcurveto
          -275 hlineto
          95 630 6 41 -17 37 -30 31 rlinecurve
          -29 30 -54 31 -59 31 rrcurveto
          0 116 53 29 17 vhcurveto
          53 33 37 37 8 54 96 631 rcurveline
          276 hlineto
          1 19 16 83 0 vvcurveto
          0 -171 47 -89 -157 -87 -54 -198 -31 vhcurveto
          -81 -532 -4 -23 -25 -21 -36 -19 rlinecurve
          -52 -27 -75 -22 -65 -16 -18 -124 rcurveline
          59 -14 63 -25 43 -29 rrcurveto
          32 -21 20 -24 -22 vvcurveto
          0 -91 -615 -1 -29 vhcurveto
          endchar
        </CharString>
        <CharString name="braceright">
          -236 -204 149 1656 153 hstem
          30 891 vstem
          796 1611 rmoveto
          110 1 -84 33 -125 hhcurveto
          -110 -74 -21 -26 -91 hvcurveto
          0 -11 -91 -3 -15 vhcurveto
          275 hlineto
          -95 -630 -6 -41 17 -37 30 -31 rlinecurve
          29 -30 54 -31 59 -31 rrcurveto
          0 -116 -53 -29 -17 vhcurveto
          -53 -33 -37 -37 -8 -54 -96 -631 rcurveline
          -276 hlineto
          -1 -19 -16 -83 0 vvcurveto
          0 171 -47 89 157 87 54 198 31 vhcurveto
          81 532 4 23 25 21 36 19 rlinecurve
          52 27 75 22 65 16 18 124 rcurveline
          -59 14 -63 25 -43 29 rrcurveto
          -32 21 -20 24 22 vvcurveto
          0 91 615 1 29 vhcurveto
          endchar
        </CharString>
        <CharString name="bracketleft">
          -406 -211 155 1657 152 hstem
          145 446 vstem
          149 42 rmoveto
          -4 -40 0 -36 -34 vvcurveto
          -110 86 -33 126 109 73 21 26 91 vhcurveto
          13 107 rlineto
          -44 -187 2 -44 hhcurveto
          223 1656 rlineto
          275 hlineto
          16 105 rlineto
          0 -172 47 -88 -158 -87 -60 -192 -25 vhcurveto
          -30 -227 -162 -1048 -11 -184 rrcurveto
          endchar
        </CharString>
        <CharString name="bracketright">
          -406 -197 152 1657 155 hstem
          309 446 vstem
          751 1514 rmoveto
          4 40 0 36 34 vvcurveto
          110 -86 33 -126 -109 -73 -21 -26 -91 vhcurveto
          -13 -107 rlineto
          44 187 -2 44 hhcurveto
          -223 -1656 rlineto
          -275 hlineto
          -16 -105 rlineto
          0 172 -47 88 158 87 60 192 25 vhcurveto
          30 227 162 1048 11 184 rrcurveto
          endchar
        </CharString>
        <CharString name="breve">
          -553 1300 182 hstem
          55 148 vstem
          356 1300 -98 callgsubr
        </CharString>
        <CharString name="breve.cap">
          -555 1631 182 hstem
          53 148 vstem
          353 1631 -37 callgsubr
        </CharString>
        <CharString name="brokenbar">
          35 callsubr
          901 rmoveto
          193 879 -193 hlineto
          -1966 vmoveto
          193 879 -193 hlineto
          endchar
        </CharString>
        <CharString name="bullet">
          -412 481 485 hstem
          198 480 vstem
          401 481 rmoveto
          174 103 152 135 111 -90 87 -113 -163 -114 -148 -135 -109 90 -93 113 hvcurveto
          endchar
        </CharString>
        <CharString name="c">
          2 callsubr
          hstem
          73 275 vstem
          73 440 -93 callgsubr
          endchar
        </CharString>
        <CharString name="cacute">
          2 callsubr
          78 502 hstemhm
          73 275 206 484 hintmask 00101000
          632 1241 -87 callgsubr
          hintmask 11010000
          -481 -872 -93 callgsubr
          endchar
        </CharString>
        <CharString name="caron">
          -476 1247 413 hstem
          60 725 vstem
          277 -77 callgsubr
          endchar
        </CharString>
        <CharString name="caron.cap">
          -478 1607 400 hstem
          81 724 vstem
          297 1607 22 callgsubr
        </CharString>
        <CharString name="caronvertical">
          -955 1040 640 hstem
          248 207 vstem
          303 1040 -75 callsubr
        </CharString>
        <CharString name="ccaron">
          2 callsubr
          84 413 hstemhm
          73 275 -11 725 hintmask 00101000
          554 -77 callgsubr
          hintmask 11010000
          -264 -1162 -93 callgsubr
          endchar
        </CharString>
        <CharString name="ccedilla">
          -346 -474 155 321 -21 31 -21 1020 152 hstemhm
          74 275 63 165 hintmask 00000000
          hintmask 10111100
          161 -304 rmoveto
          -35 -142 rlineto
          -16 22 93 -12 53 hhcurveto
          183 88 75 187 12 hvcurveto
          4 69 -9 82 -17 52 153 30 103 93 43 59 -51 92 rcurveline
          -74 -82 -69 -47 -113 hhcurveto
          -120 -68 92 224 -2 hvcurveto
          331 -4 148 220 139 hhcurveto
          72 96 -108 -36 57 hvcurveto
          72 253 rlineto
          28 -62 -99 15 -77 hhcurveto
          -414 -206 -400 -323 3 hvcurveto
          hintmask 11011100
          2 -281 125 -161 209 -17 4 -30 1 -39 28 callgsubr
        </CharString>
        <CharString name="ccircumflex">
          2 callsubr
          65 432 hstemhm
          73 275 -49 725 hintmask 00101000
          381 1229 -88 callgsubr
          hintmask 11010000
          -226 -846 -93 callgsubr
          endchar
        </CharString>
        <CharString name="cdotaccent">
          2 callsubr
          57 callgsubr
          hstemhm
          73 275 186 317 hintmask 11010000
          73 440 -93 callgsubr
          hintmask 00101000
          600 923 rmoveto
          -104 callgsubr
          endchar
        </CharString>
        <CharString name="cedilla">
          -791 -474 155 hstem
          270 165 vstem
          260 30 rmoveto
          7 -32 9 -55 -6 -80 -68 callgsubr
          5 91 -17 112 -28 39 -68 4 rcurveline
          endchar
        </CharString>
        <CharString name="cent">
          -214 12 -21 1020 151 0 -20 hstemhm
          127 275 hintmask 00000000
          hintmask 10110000
          403 -9 rmoveto
          -38 -206 rlineto
          150 hlineto
          36 198 185 17 123 107 48 66 rlinecurve
          -51 92 rlineto
          -74 -82 -69 -47 -113 hhcurveto
          -120 -68 92 224 -2 hvcurveto
          hintmask 11010000
          331 -4 148 220 139 hhcurveto
          72 96 -108 -36 57 hvcurveto
          72 253 -56 25 -86 15 -73 2 rlinecurve
          47 196 rlineto
          -150 hlineto
          -49 -209 -328 -73 -163 -349 3 -287 rlinecurve
          hintmask 10110000
          1 -253 102 -155 173 -41 rrcurveto
          endchar
        </CharString>
        <CharString name="circumflex">
          -475 1228 432 hstem
          50 725 vstem
          132 1229 -28 callsubr
        </CharString>
        <CharString name="circumflex.cap">
          -476 1686 -21 hstem
          50 725 vstem
          134 1607 -92 callsubr
        </CharString>
        <CharString name="colon">
          -729 0 -21 830 -21 hstemhm
          64 309 -210 309 hintmask 01010000
          163 931 -80 callsubr
          hintmask 10100000
          -99 -809 -80 callsubr
          endchar
        </CharString>
        <CharString name="comma">
          -729 -490 -21 hstem
          183 227 vstem
          -26 callsubr
          endchar
        </CharString>
        <CharString name="commaaccent">
          -903 -8 callsubr
          hstemhm
          97 44 callgsubr
          hintmask 11100000
          36 -156 -104 callsubr
          endchar
        </CharString>
        <CharString name="copyright">
          498 42 116 208 123 659 99 207 115 hstem
          168 129 245 179 393 89 367 129 vstem
          -47 callgsubr
          245 -4 rmoveto
          -239 1 138 -197 239 hhcurveto
          119 117 45 47 57 hvcurveto
          -34 86 rlineto
          -25 -44 -80 -30 -96 hhcurveto
          -112 -128 93 279 2 hvcurveto
          181 1 96 106 120 hhcurveto
          53 45 -13 -26 29 hvcurveto
          49 -120 rlineto
          89 220 hlineto
          22 -41 -103 16 -90 hhcurveto
          -268 -161 -205 -240 2 hvcurveto
          endchar
        </CharString>
        <CharString name="currency">
          270 252 178 521 177 hstem
          342 191 498 191 vstem
          218 243 rmoveto
          128 -127 202 202 rlineto
          -42 68 80 -24 86 hhcurveto
          89 83 26 45 69 hvcurveto
          202 -202 128 127 -203 202 rlineto
          45 69 27 82 89 vvcurveto
          85 -25 80 -42 67 vhcurveto
          200 200 -127 128 -199 -198 rlineto
          48 -70 -85 28 -92 hhcurveto
          -88 -81 -26 -43 -68 hvcurveto
          -203 204 -127 -128 201 -201 rlineto
          -47 -70 -27 -84 -90 vvcurveto
          -92 28 -85 48 -70 vhcurveto
          115 247 rmoveto
          143 111 118 138 138 111 -118 -143 -142 -111 -118 -138 -138 -111 118 142 vhcurveto
          endchar
        </CharString>
        <CharString name="d">
          -53 -20 158 894 36 callgsubr
          hintmask 00000000
          hintmask 11011100
          409 -65 callgsubr
          205 1415 15 callgsubr
          rlineto
          hintmask 10111100
          -50 -333 rlineto
          hintmask 11011100
          -77 callsubr
          endchar
        </CharString>
        <CharString name="dagger">
          -454 1117 171 hstemhm
          120 753 -436 149 hintmask 00000000
          hintmask 11000000
          266 151 rmoveto
          147 hlineto
          hintmask 10100000
          171 857 5 109 rlineto
          260 hlineto
          24 171 rlineto
          -282 hlineto
          59 181 30 177 rlineto
          -220 hlineto
          -21 -177 -2 -32 1 -117 -2 -32 rlinecurve
          -291 hlineto
          -25 -171 rlineto
          270 hlineto
          -25 -109 rlineto
          endchar
        </CharString>
        <CharString name="daggerdbl">
          -454 618 172 327 171 hstem
          366 237 vstem
          270 -51 rmoveto
          148 hlineto
          109 550 3 20 4 79 -1 20 rlinecurve
          216 hlineto
          25 172 rlineto
          -240 hlineto
          69 191 rlineto
          24 0 88 2 24 vhcurveto
          249 hlineto
          25 171 rlineto
          -266 hlineto
          55 181 28 177 rlineto
          -221 hlineto
          -19 -177 2 -181 rlineto
          -281 hlineto
          -27 -171 rlineto
          261 hlineto
          -47 -136 4 -191 rlineto
          -223 hlineto
          -28 -172 rlineto
          216 hlineto
          -35 -119 rlineto
          endchar
        </CharString>
        <CharString name="dcaron">
          176 -20 158 872 640 -618 36 callgsubr
          339 207 hintmask 00000000
          hintmask 10101110
          409 -65 callgsubr
          205 1415 15 callgsubr
          rlineto
          hintmask 10011110
          -50 -333 rlineto
          hintmask 10101110
          -77 callsubr
          hintmask 01000001
          880 872 -75 callsubr
        </CharString>
        <CharString name="dcroat">
          -51 -32 callsubr
          -14 -20 133 130 133 -20 hstemhm
          74 273 385 252 hintmask 00000000
          hintmask 11011110
          411 -65 callgsubr
          152 1054 rlineto
          133 hlineto
          16 130 rlineto
          -130 hlineto
          34 231 15 callgsubr
          -14 -90 rlineto
          -269 hlineto
          -16 -130 rlineto
          266 hlineto
          hintmask 10111110
          -17 -113 rlineto
          hintmask 11011110
          -77 callsubr
          endchar
        </CharString>
        <CharString name="degree">
          -342 945 139 388 139 hstem
          193 158 366 158 vstem
          523 945 rmoveto
          199 150 142 191 3 hvcurveto
          183 3 -144 150 -191 hhcurveto
          -200 -147 -144 -189 -3 hvcurveto
          -183 -3 142 -150 191 hhcurveto
          7 139 rmoveto
          -102 -79 87 107 2 hvcurveto
          111 2 77 83 107 hhcurveto
          102 80 -87 -107 -2 hvcurveto
          -111 -1 -79 -83 -107 hhcurveto
          endchar
        </CharString>
        <CharString name="dieresis">
          -461 1363 313 hstemhm
          39 297 139 297 hintmask 00000000
          hintmask 11100000
          604 1363 -34 callgsubr
        </CharString>
        <CharString name="dieresis.cap">
          -464 1679 4 callsubr
          40 6 callgsubr
          hintmask 00000000
          hintmask 01010000
          599 1679 -10 callsubr
          hintmask 10010000
          -48 callsubr
          -73 -67 -93 -1 hvcurveto
          hintmask 01010000
          4 callgsubr
          hintmask 01100000
          -31 callsubr
          hintmask 10100000
          -48 callsubr
          -70 -67 -93 -2 hvcurveto
          hintmask 01100000
          5 callgsubr
          endchar
        </CharString>
        <CharString name="divide">
          100 685 177 hstem
          259 922 vstem
          746 1031 rmoveto
          86 97 62 111 5 hvcurveto
          75 4 -43 68 -96 hhcurveto
          -83 -95 -69 -104 -5 hvcurveto
          -85 -4 61 -58 73 hhcurveto
          -487 -346 rmoveto
          904 hlineto
          18 177 rlineto
          -904 hlineto
          235 -518 rmoveto
          -85 -5 61 -58 73 hhcurveto
          87 95 62 111 6 hvcurveto
          75 4 -42 68 -96 hhcurveto
          -84 -94 -69 -104 -5 hvcurveto
          endchar
        </CharString>
        <CharString name="dollar">
          -65 2 -21 1564 -20 hstem
          209 249 351 257 vstem
          63 70 rmoveto
          38 -31 141 -44 165 -14 -34 -211 rcurveline
          180 hlineto
          34 211 rlineto
          302 28 177 183 245 vvcurveto
          211 -162 118 -166 102 vhcurveto
          -170 105 -115 88 5 155 rrcurveto
          146 6 108 71 125 hhcurveto
          74 70 -20 -36 51 hvcurveto
          31 -180 rlineto
          153 hlineto
          51 273 -47 29 -89 33 -137 13 rlinecurve
          30 184 rlineto
          -181 hlineto
          -29 -182 rlineto
          -264 -22 -201 -158 -257 vvcurveto
          -217 165 -127 171 -108 vhcurveto
          163 -103 107 -80 -6 -145 rrcurveto
          -147 -7 -112 -89 -164 hhcurveto
          -93 -79 34 43 -57 hvcurveto
          -15 197 rlineto
          -165 hlineto
          endchar
        </CharString>
        <CharString name="dotaccent">
          -882 1363 313 hstem
          36 317 vstem
          175 1363 rmoveto
          -104 callgsubr
          endchar
        </CharString>
        <CharString name="dotaccent.cap">
          -881 1673 -21 hstem
          31 328 vstem
          175 1652 9 callgsubr
        </CharString>
        <CharString name="dotlessi">
          -53 callgsubr
          hstemhm
          99 468 hintmask 00000000
          hintmask 01011000
          136 -82 callgsubr
          hintmask 10101000
          -89 callgsubr
          hintmask 01011000
          -92 callgsubr
          endchar
        </CharString>
        <CharString name="dotlessj">
          26 callsubr
          hstemhm
          -230 773 hintmask 00000000
          hintmask 10110000
          152 -62 callsubr
          hintmask 11010000
          134 1139 rlineto
          hintmask 10110000
          8 callgsubr
          endchar
        </CharString>
        <CharString name="e">
          -57 callsubr
          hstem
          74 284 379 263 vstem
          74 430 -94 callsubr
        </CharString>
        <CharString name="eacute">
          -57 callsubr
          78 502 53 callsubr
          205 484 -310 263 hintmask 00010100
          641 1241 -87 callgsubr
          hintmask 11101010
          -489 -882 -94 callsubr
        </CharString>
        <CharString name="ebreve">
          -57 callsubr
          137 182 53 callsubr
          24 148 207 263 hintmask 11101010
          74 430 -107 callsubr
          hintmask 00010100
          323 727 -98 callgsubr
        </CharString>
        <CharString name="ecaron">
          -57 callsubr
          84 413 53 callsubr
          -12 725 -334 263 hintmask 00010100
          563 -77 callgsubr
          hintmask 11101010
          -272 -1172 -94 callsubr
        </CharString>
        <CharString name="ecircumflex">
          -57 callsubr
          65 432 53 callsubr
          -50 725 -296 263 hintmask 00010100
          390 1229 -88 callgsubr
          hintmask 11101010
          -234 -856 -94 callsubr
        </CharString>
        <CharString name="edieresis">
          -57 callsubr
          57 callgsubr
          53 callsubr
          -27 297 109 263 -233 297 hintmask 00000000
          hintmask 00010101
          896 1363 -99 callsubr
          hintmask 11101010
          -386 -933 -94 callsubr
        </CharString>
        <CharString name="edotaccent">
          -57 callsubr
          57 callgsubr
          53 callsubr
          185 317 -123 263 hintmask 11101010
          74 430 -107 callsubr
          hintmask 00010100
          322 790 rmoveto
          -104 callgsubr
          endchar
        </CharString>
        <CharString name="egrave">
          -57 callsubr
          83 497 53 callsubr
          -98 466 11 263 hintmask 11101010
          74 430 -107 callsubr
          hintmask 00010100
          286 673 -74 callsubr
        </CharString>
        <CharString name="eight">
          -15 -20 116 1364 109 hstemhm
          112 244 -89 247 335 257 -174 227 hintmask 00000000
          hintmask 11100100
          112 354 rmoveto
          -271 244 -103 212 vhcurveto
          hintmask 11101000
          271 267 157 266 168 -123 140 -146 102 hvcurveto
          hintmask 11010100
          165 95 157 139 188 vvcurveto
          212 -181 122 -228 -285 -198 -151 -242 -153 87 -117 107 -88 vhcurveto
          hintmask 11100100
          -183 -102 -166 -163 -199 vvcurveto
          608 546 rmoveto
          hintmask 11010100
          -123 88 -83 101 123 vvcurveto
          160 95 88 125 100 98 -63 -162 vhcurveto
          hintmask 11100100
          -158 -95 -116 -117 -61 vhcurveto
          -364 -527 rmoveto
          2 163 92 131 122 69 rrcurveto
          hintmask 11101000
          161 -115 116 -118 -148 vvcurveto
          -162 -119 -97 -142 vhcurveto
          hintmask 11100100
          -150 -82 137 140 hvcurveto
          endchar
        </CharString>
        <CharString name="ellipsis">
          308 -21 317 hstemhm
          62 308 218 308 218 308 cntrmask 01110000
          hintmask 00000000
          hintmask 11110000
          1114 122 rmoveto
          -26 callgsubr
          -526 hmoveto
          -26 callgsubr
          -526 hmoveto
          -26 callgsubr
          endchar
        </CharString>
        <CharString name="emacron">
          -57 callsubr
          252 179 53 callsubr
          26 542 -189 263 hintmask 11101010
          74 430 -107 callsubr
          hintmask 00010100
          24 842 -60 callsubr
          endchar
        </CharString>
        <CharString name="emdash">
          764 684 177 hstem
          240 1623 vstem
          240 684 rmoveto
          1590 hlineto
          33 177 rlineto
          -1591 hlineto
          endchar
        </CharString>
        <CharString name="endash">
          273 684 177 hstem
          240 1132 vstem
          240 684 rmoveto
          1097 hlineto
          35 177 rlineto
          -1097 hlineto
          endchar
        </CharString>
        <CharString name="eng">
          6 -523 126 418 -21 985 177 -7 -20 hstemhm
          109 1023 -274 273 hintmask 00000000
          hintmask 11011000
          109 hmoveto
          12 callgsubr
          hintmask 11100100
          147 88 120 93 84 hhcurveto
          67 35 -32 -115 -6 hvcurveto
          -23 -300 -48 -383 -18 -122 rrcurveto
          -246 -39 -60 -184 -175 hhcurveto
          -11 -43 4 8 -18 hvcurveto
          -36 -101 rlineto
          -24 22 65 -13 68 hhcurveto
          263 143 133 390 78 hvcurveto
          47 235 37 312 21 314 rrcurveto
          230 14 -117 71 -143 hhcurveto
          -163 -136 -105 -126 -92 hvcurveto
          hintmask 11011000
          16 200 -50 24 -308 -52 -17 -89 103 -60 rlineto
          endchar
        </CharString>
        <CharString name="eogonek">
          -220 58 callgsubr
          267 159 -134 -21 474 115 463 127 53 callsubr
          4 238 137 263 hintmask 00000000
          hintmask 10111011
          400 -174 rmoveto
          -23 -33 -14 -50 -1 -36 rrcurveto
          -84 -1 56 23 callsubr
          23 61 2 hvcurveto
          1 76 118 129 111 91 4 3 rcurveline
          22 18 9 7 -124 -20 -57 -39 -39 -23 -43 -24 -45 -31 rlinecurve
          113 13 92 46 68 50 4 3 rcurveline
          22 18 4 2 3 3 4 3 rlinecurve
          -2 -1 30 27 23 26 15 23 rlinecurve
          -55 93 rlineto
          hintmask 11011101
          -88 -84 -106 -63 -129 hhcurveto
          -149 -59 151 168 7 hvcurveto
          221 6 426 129 -5 320 rrcurveto
          141 -3 -94 109 -210 hhcurveto
          -349 -266 -331 -402 -4 hvcurveto
          -228 -3 120 -222 302 hhcurveto
          22 21 2 2 21 hvcurveto
          hintmask 10111011
          -54 -38 -55 -50 -48 -70 rrcurveto
          hintmask 11011101
          -40 747 rmoveto
          177 16 78 286 179 hhcurveto
          63 39 -47 -98 2 hvcurveto
          3 -200 -240 -111 -140 -7 rrcurveto
          endchar
        </CharString>
        <CharString name="equal">
          -207 41 callsubr
          150 843 rmoveto
          815 hlineto
          20 177 rlineto
          -815 hlineto
          -92 -696 rmoveto
          815 hlineto
          21 177 rlineto
          -815 hlineto
          endchar
        </CharString>
        <CharString name="estimated">
          137 -16 140 498 146 448 140 hstem
          120 318 557 303 vstem
          438 241 rmoveto
          381 850 vlineto
          10 51 0 73 86 vvcurveto
          -10 329 -239 200 -295 -5 rrcurveto
          -428 -7 -206 -286 -392 vvcurveto
          -430 235 -257 400 168 190 54 61 87 vhcurveto
          -56 132 rlineto
          -44 -69 -148 -63 -157 hhcurveto
          -133 -118 32 85 -81 hvcurveto
          527 vmoveto
          329 vlineto
          84 75 105 35 122 hhcurveto
          118 81 -28 -46 56 hvcurveto
          -374 vlineto
          endchar
        </CharString>
        <CharString name="eth">
          -103 -20 118 888 124 426 -20 hstem
          65 274 490 275 vstem
          65 443 rmoveto
          -219 135 -244 286 396 222 364 468 270 -88 256 -217 198 vhcurveto
          148 168 -108 96 rlineto
          0 -84 -105 -65 -74 vhcurveto
          -97 66 -117 56 -78 21 -49 -139 rcurveline
          68 -20 81 -53 72 -59 -149 -162 rcurveline
          111 -93 140 160 104 -115 35 -114 22 -131 rlinecurve
          54 -45 -74 18 -91 hhcurveto
          -301 -257 -251 -416 hvcurveto
          450 -345 rmoveto
          -122 -54 143 165 248 84 332 202 168 39 -190 -68 -3 hvcurveto
          -2 -42 -12 -102 -5 -33 rrcurveto
          -250 -33 -111 -203 -151 hhcurveto
          endchar
        </CharString>
        <CharString name="exclam">
          -569 0 -21 hstem
          123 546 vstem
          248 508 -54 callgsubr
          endchar
        </CharString>
        <CharString name="exclamdbl">
          48 0 -21 hstemhm
          123 546 70 546 hintmask 11000000
          248 508 -54 callgsubr
          hintmask 10100000
          741 386 -54 callgsubr
          endchar
        </CharString>
        <CharString name="exclamdown">
          -569 1344 21 hstem
          64 546 vstem
          485 836 rmoveto
          -171 hlineto
          -250 -1270 rlineto
          290 hlineto
          256 1656 rmoveto
          85 5 -61 58 -72 hhcurveto
          -87 -97 -61 -113 -6 hvcurveto
          -75 -4 41 -68 97 hhcurveto
          83 95 70 104 6 hvcurveto
          endchar
        </CharString>
        <CharString name="f">
          -565 -7 callgsubr
          hstemhm
          -230 1131 hintmask 00000000
          hintmask 10101100
          109 -145 -75 callgsubr
          hintmask 01101100
          17 callsubr
          hintmask 10110100
          -105 callsubr
          hintmask 10101100
          17 callgsubr
          hintmask 10110100
          -76 callsubr
        </CharString>
        <CharString name="f_f">
          144 -7 callgsubr
          hstemhm
          -229 1131 -424 1131 hintmask 00000000
          hintmask 10101100
          110 -145 -75 callgsubr
          hintmask 01101100
          17 callsubr
          hintmask 10110100
          -105 callsubr
          hintmask 10101100
          17 callgsubr
          hintmask 10110100
          -94 callgsubr
          hintmask 00000000
          -13 callgsubr
          hintmask 10101010
          17 callsubr
          hintmask 01101010
          -105 callsubr
          hintmask 10110010
          17 callgsubr
          hintmask 10101010
          -76 callsubr
        </CharString>
        <CharString name="f_f_i">
          -101 callgsubr
        </CharString>
        <CharString name="f_f_l">
          765 -4 callsubr
          -424 1131 -82 268 -31 callgsubr
          hintmask 0001001000100000
          1527 -24 callsubr
          hintmask 0010001000100000
          -81 callgsubr
          hintmask 0001001000100000
          16 callsubr
          -31 callgsubr
          -1417 -260 -75 callgsubr
          hintmask 1000100110000000
          17 callsubr
          hintmask 0100100110000000
          -105 callsubr
          hintmask 1000110010000000
          17 callgsubr
          hintmask 1000100110000000
          -94 callgsubr
          hintmask 1000110010000000
          -13 callgsubr
          -31 callgsubr
          17 callsubr
          hintmask 1000100101000000
          -105 callsubr
          hintmask 0100100101000000
          17 callgsubr
          hintmask 1000110001000000
          -76 callsubr
        </CharString>
        <CharString name="f_i">
          -90 callgsubr
        </CharString>
        <CharString name="f_l">
          58 -4 callsubr
          -82 268 -31 callgsubr
          hintmask 0001001001000000
          820 -24 callsubr
          hintmask 0010001001000000
          -81 callgsubr
          hintmask 0001001001000000
          16 callsubr
          -31 callgsubr
          -710 -260 -75 callgsubr
          hintmask 1000100110000000
          17 callsubr
          hintmask 0100100110000000
          -105 callsubr
          hintmask 1000110010000000
          17 callgsubr
          hintmask 1000100110000000
          -76 callsubr
        </CharString>
        <CharString name="ffi_dflt">
          -101 callgsubr
        </CharString>
        <CharString name="fi_trk">
          -90 callgsubr
        </CharString>
        <CharString name="five">
          -154 -350 127 665 146 368 190 -190 206 hstemhm
          681 292 hintmask 00000000
          hintmask 11101000
          60 -212 rmoveto
          -19 -117 rlineto
          -11 33 77 -10 42 hhcurveto
          409 371 219 349 236 -151 134 -220 -90 -80 -13 -15 -47 hvcurveto
          110 396 rlineto
          500 hlineto
          hintmask 11011000
          56 206 rlineto
          -193 hlineto
          hintmask 11101000
          -22 -16 rlineto
          -537 hlineto
          -176 -715 55 -42 rlineto
          29 73 74 24 87 hhcurveto
          179 90 -92 -168 -213 -207 -192 -320 -30 -38 5 6 -26 hvcurveto
          endchar
        </CharString>
        <CharString name="florin">
          -212 985 163 356 186 4 -21 hstemhm
          174 874 hintmask 00000000
          hintmask 10110000
          209 -356 rmoveto
          238 hlineto
          167 1341 rlineto
          288 hlineto
          13 163 rlineto
          -281 hlineto
          16 137 rlineto
          hintmask 11010000
          195 19 94 24 91 hhcurveto
          114 45 -26 -10 22 hvcurveto
          hintmask 10110000
          13 205 rlineto
          hintmask 11010000
          7 -16 -45 10 -107 hhcurveto
          -177 -268 -190 -297 -33 hvcurveto
          -7 -55 -211 -58 -10 -105 rlineto
          206 hlineto
          endchar
        </CharString>
        <CharString name="four">
          -6 0 179 hstem
          1 1158 vstem
          52 hmoveto
          621 hlineto
          -49 -375 rlineto
          244 hlineto
          47 375 rlineto
          220 hlineto
          24 187 -217 -15 52 427 -248 -58 -51 -376 -416 -28 61 82 637 948 -82 89 rlineto
          -202 hlineto
          -255 -455 -195 -346 -242 -366 rrcurveto
          endchar
        </CharString>
        <CharString name="foursuperior">
          -41 778 138 -138 168 hstemhm
          112 1029 hintmask 00000000
          hintmask 10100000
          622 441 rmoveto
          225 hlineto
          hintmask 01100000
          -13 callsubr
          hintmask 10100000
          -36 callsubr
          endchar
        </CharString>
        <CharString name="fraction">
          -244 21 -21 1530 -20 hstem
          96 870 vstem
          96 hmoveto
          -3 callsubr
          endchar
        </CharString>
        <CharString name="g">
          -84 -18 callsubr
          hstem
          72 275 vstem
          161 -273 -65 callsubr
        </CharString>
        <CharString name="gbreve">
          -84 -18 callsubr
          137 182 20 callsubr
          115 148 hintmask 11101000
          161 -273 -102 callgsubr
          hintmask 00010100
          263 1162 -98 callgsubr
        </CharString>
        <CharString name="gcircumflex">
          -84 -18 callsubr
          65 432 20 callsubr
          41 725 hintmask 00010100
          470 1229 -88 callgsubr
          hintmask 11101000
          -227 -1559 -65 callsubr
        </CharString>
        <CharString name="gcommaaccent">
          -83 -18 callsubr
          111 516 hstemhm
          73 275 228 44 callgsubr
          hintmask 00010100
          721 1274 rmoveto
          139 112 9 73 -41 7 -31 54 2 49 rlinecurve
          4 72 33 42 36 26 3 26 rcurveline
          -70 55 -91 -19 -130 -118 -8 -161 rlinecurve
          -5 -104 60 -95 90 -19 rrcurveto
          hintmask 11101000
          -559 -1547 -65 callsubr
        </CharString>
        <CharString name="gdotaccent">
          -84 -18 callsubr
          57 callgsubr
          20 callsubr
          276 317 hintmask 11101000
          161 -273 -102 callgsubr
          hintmask 00010100
          262 1225 rmoveto
          -104 callgsubr
          endchar
        </CharString>
        <CharString name="germandbls">
          -76 -16 132 -95 -21 1464 121 hstemhm
          635 225 -13 273 -243 266 hintmask 00000000
          hintmask 01100100
          40 hmoveto
          264 hlineto
          108 867 rlineto
          436 51 111 161 149 hhcurveto
          104 50 -79 -98 -114 -55 -92 -81 -82 hvcurveto
          hintmask 10110100
          -61 -65 -45 -46 -95 vvcurveto
          -87 67 -113 55 -70 vhcurveto
          hintmask 10101000
          40 -64 50 -98 -79 vvcurveto
          -154 -87 -11 -93 -1 vhcurveto
          -80 -1 -96 63 -31 40 -26 -187 rcurveline
          -23 46 85 -24 124 hhcurveto
          239 192 133 208 140 -87 99 -61 82 hvcurveto
          hintmask 10110100
          -75 97 -37 51 47 vvcurveto
          hintmask 10100100
          155 283 -2 294 vvcurveto
          194 -166 103 -196 -234 -311 -58 -600 -81 vhcurveto
          endchar
        </CharString>
        <CharString name="grave">
          -729 1246 497 hstem
          25 466 vstem
          411 1246 -74 callsubr
        </CharString>
        <CharString name="grave.cap">
          -748 1686 -21 hstem
          43 430 vstem
          387 1592 -17 callgsubr
        </CharString>
        <CharString name="greater">
          98 179 1148 hstem
          250 1025 vstem
          1275 817 rmoveto
          -890 510 -25 -219 657 -354 -739 -348 -28 -227 1009 510 rlineto
          endchar
        </CharString>
        <CharString name="greaterequal">
          94 -1 160 hstem
          141 1069 vstem
          197 246 rmoveto
          1004 443 9 78 -892 440 -25 -208 612 -271 -679 -272 rlineto
          -85 -457 42 callgsubr
        </CharString>
        <CharString name="guillemotleft">
          608 147 944 hstemhm
          208 782 -106 782 hintmask 11000000
          208 530 -22 callgsubr
          hintmask 10100000
          654 -160 -22 callgsubr
          endchar
        </CharString>
        <CharString name="guillemotright">
          608 147 944 hstemhm
          116 782 -106 782 hintmask 11000000
          898 708 -22 callsubr
          hintmask 10100000
          698 160 -22 callsubr
          endchar
        </CharString>
        <CharString name="guilsinglleft">
          -80 147 944 hstem
          227 782 vstem
          227 530 -22 callgsubr
          endchar
        </CharString>
        <CharString name="guilsinglright">
          -80 147 944 hstem
          112 782 vstem
          894 708 -22 callsubr
          endchar
        </CharString>
        <CharString name="h">
          -2 25 callsubr
          362 -20 hstemhm
          748 16 callgsubr
          hintmask 00000000
          hintmask 00111010
          95 42 callsubr
          -30 callgsubr
          hintmask 01011100
          -1 callsubr
          43 callgsubr
          hintmask 10011100
          -20 callgsubr
          hintmask 00111010
          -20 callsubr
          90 707 -6 callgsubr
          rlineto
          endchar
        </CharString>
        <CharString name="hbar">
          0 25 callsubr
          99 130 133 -20 hstemhm
          748 16 callgsubr
          hintmask 00000000
          hintmask 00111101
          95 42 callsubr
          -30 callgsubr
          hintmask 01011110
          -1 callsubr
          43 callgsubr
          hintmask 10011110
          -20 callgsubr
          hintmask 00111101
          -20 callsubr
          44 346 rlineto
          221 hlineto
          16 130 rlineto
          -221 hlineto
          30 231 -6 callgsubr
          -12 -90 rlineto
          -144 hlineto
          -16 -130 rlineto
          144 hlineto
          endchar
        </CharString>
        <CharString name="hcircumflex">
          1 25 callsubr
          362 -20 hstemhm
          749 206 -108 273 hintmask 00000000
          hintmask 00111100
          96 42 callsubr
          hintmask 00111010
          -30 callgsubr
          hintmask 01011100
          -1 callsubr
          hintmask 01011010
          43 callgsubr
          hintmask 10011010
          -20 callgsubr
          -20 callsubr
          63 497 309 207 221 -218 96 59 rlineto
          hintmask 00111100
          -211 342 rlineto
          -178 hlineto
          -215 -219 5 39 -6 callgsubr
          rlineto
          endchar
        </CharString>
        <CharString name="hungarumlaut">
          -353 1242 485 hstem
          2 865 vstem
          540 1242 -51 callsubr
          endchar
        </CharString>
        <CharString name="hungarumlaut.cap">
          -348 1656 -21 hstem
          15 897 vstem
          544 1575 -57 callgsubr
        </CharString>
        <CharString name="hyphen">
          8 callsubr
        </CharString>
        <CharString name="i">
          -615 -20 -40 callgsubr
          -91 callsubr
          -66 callgsubr
          endchar
        </CharString>
        <CharString name="i.cy">
          -622 -20 -40 callgsubr
          -91 callsubr
          -66 callgsubr
          endchar
        </CharString>
        <CharString name="i.dot">
          -615 -20 -40 callgsubr
          -91 callsubr
          -66 callgsubr
          endchar
        </CharString>
        <CharString name="i.uc">
          -525 -41 callgsubr
          143 -21 hstemhm
          6 772 -418 328 hintmask 11010000
          -99 callgsubr
          hintmask 00101000
          487 -1 callgsubr
        </CharString>
        <CharString name="iacute">
          -53 callgsubr
          98 502 hstemhm
          99 468 -254 484 hintmask 00001010
          391 1241 -87 callgsubr
          hintmask 00000000
          -177 -1191 -85 callsubr
          hintmask 01010100
          -89 callgsubr
          hintmask 10100100
          -92 callgsubr
          endchar
        </CharString>
        <CharString name="ibreve">
          -53 callgsubr
          157 182 hstemhm
          99 468 -435 148 -91 callsubr
          297 1179 -98 callgsubr
        </CharString>
        <CharString name="icircumflex">
          -53 callgsubr
          85 432 hstemhm
          58 725 -684 468 hintmask 00001100
          140 1229 -88 callgsubr
          hintmask 00000000
          78 -1165 -85 callsubr
          hintmask 01010010
          -89 callgsubr
          hintmask 10100010
          -92 callgsubr
          endchar
        </CharString>
        <CharString name="idieresis">
          -53 callgsubr
          220 313 hstemhm
          81 297 -279 468 -50 297 hintmask 00000000
          hintmask 00001101
          646 1363 -99 callsubr
          hintmask 00000000
          -74 -1242 -85 callsubr
          hintmask 01010010
          -89 callgsubr
          hintmask 10100010
          -92 callgsubr
          endchar
        </CharString>
        <CharString name="igrave">
          -53 callgsubr
          103 497 hstemhm
          11 466 -378 468 hintmask 00000000
          hintmask 01010010
          136 -82 callgsubr
          hintmask 10100010
          -89 callgsubr
          hintmask 01010010
          -92 callgsubr
          hintmask 00001100
          261 1125 -74 callsubr
        </CharString>
        <CharString name="ij">
          33 -523 126 377 -40 callgsubr
          -190 773 -31 callgsubr
          hintmask 1000100010000000
          805 -62 callsubr
          hintmask 1001000010000000
          134 1139 rlineto
          hintmask 1000100010000000
          8 callgsubr
          -31 callgsubr
          -770 -859 -85 callsubr
          hintmask 0010101000000000
          -89 callgsubr
          hintmask 0101001000000000
          -92 callgsubr
          hintmask 0010101000000000
          -66 callgsubr
          hintmask 0000010100000000
          649 hmoveto
          -104 callgsubr
          endchar
        </CharString>
        <CharString name="imacron">
          -53 callgsubr
          272 179 hstemhm
          99 468 -433 542 -91 callsubr
          -2 1294 -60 callsubr
          endchar
        </CharString>
        <CharString name="infinity">
          878 184 158 -158 173 527 173 -168 168 hstemhm
          184 228 1337 219 hintmask 00000000
          hintmask 10011100
          184 594 rmoveto
          hintmask 01011100
          -219 175 -193 261 2 vhcurveto
          208 1 138 132 98 136 rrcurveto
          hintmask 10101100
          -132 109 123 -137 211 hhcurveto
          283 181 198 269 -3 hvcurveto
          -2 219 -164 189 -261 -2 -200 -2 -149 -130 -102 -136 rrcurveto
          hintmask 10011100
          132 -110 -126 136 -209 hhcurveto
          -269 -193 -199 -264 1 hvcurveto
          hintmask 01011100
          228 38 rmoveto
          124 -4 77 133 123 hhcurveto
          182 96 -199 -121 83 hvcurveto
          -118 -84 -98 -94 -116 hhcurveto
          -160 -94 133 142 -5 hvcurveto
          hintmask 10101100
          774 42 rmoveto
          116 88 106 94 115 hhcurveto
          170 80 -136 -139 4 hvcurveto
          -147 4 -57 -120 -118 hhcurveto
          -183 -120 208 124 -89 hvcurveto
          endchar
        </CharString>
        <CharString name="integral">
          -84 -495 144 1919 139 hstemhm
          365 251 -56 247 hintmask 00000000
          hintmask 11010000
          199 -228 rmoveto
          -148 -120 rlineto
          -128 63 152 -19 79 hhcurveto
          277 185 237 304 hvcurveto
          404 -191 395 404 vvcurveto
          hintmask 11100000
          245 63 74 136 83 68 -75 -48 11 vhcurveto
          149 115 rlineto
          128 -64 -152 19 -79 hhcurveto
          -276 -190 -238 -303 hvcurveto
          -401 195 -393 -404 vvcurveto
          hintmask 11010000
          -246 -62 -73 -136 -78 -68 71 52 -17 vhcurveto
          endchar
        </CharString>
        <CharString name="iogonek">
          -616 58 callgsubr
          296 -21 1151 -20 44 -20 hstemhm
          5 237 45 157 0 160 hintmask 00000000
          hintmask 11010100
          426 1363 rmoveto
          hintmask 11010010
          110 65 81 94 3 hvcurveto
          71 3 -57 67 -92 hhcurveto
          hintmask 11010100
          -93 -75 -76 -93 -3 hvcurveto
          -74 -2 64 -70 77 hhcurveto
          hintmask 11101100
          -378 -1532 rmoveto
          -47 callsubr
          70 91 78 115 82 63 36 42 49 13 18 -30 63 rcurveline
          -44 -51 -26 -13 -22 hhcurveto
          -26 -10 27 49 7 hvcurveto
          134 932 rlineto
          hintmask 11010100
          -92 callgsubr
          -8 -72 34 -45 68 -16 rrcurveto
          hintmask 11101100
          -60 -33 -63 -41 -59 -83 rrcurveto
          endchar
        </CharString>
        <CharString name="itilde">
          -53 callgsubr
          190 48 callgsubr
          64 746 -711 468 hintmask 00000000
          hintmask 01010001
          136 -82 callgsubr
          hintmask 10100001
          -89 callgsubr
          hintmask 01010001
          -92 callgsubr
          hintmask 00000000
          -10 1271 -44 callgsubr
          hintmask 00000110
          -19 callsubr
          endchar
        </CharString>
        <CharString name="j">
          26 callsubr
          220 313 hstemhm
          -230 773 -252 317 hintmask 00000000
          hintmask 10101000
          152 -62 callsubr
          hintmask 11001000
          134 1139 rlineto
          hintmask 10101000
          8 callgsubr
          hintmask 00010100
          177 383 rmoveto
          -104 callgsubr
          endchar
        </CharString>
        <CharString name="jcircumflex">
          26 callsubr
          85 432 hstemhm
          -230 773 -539 725 hintmask 00000000
          hintmask 10101000
          152 -62 callsubr
          hintmask 11001000
          134 1139 rlineto
          hintmask 10101000
          8 callgsubr
          hintmask 00010100
          -167 249 -28 callsubr
        </CharString>
        <CharString name="k">
          -152 1 -21 41 -21 1163 -20 382 -20 hstemhm
          84 1065 hintmask 00000000
          hintmask 01111000
          84 hmoveto
          18 callsubr
          hintmask 10111000
          -53 callsubr
        </CharString>
        <CharString name="kcommaaccent">
          -151 -8 callsubr
          526 -21 1163 -20 382 -20 hstemhm
          89 1065 -683 44 callgsubr
          hintmask 11000010
          410 -156 -104 callsubr
          hintmask 00000000
          -460 44 rmoveto
          18 callsubr
          hintmask 00111100
          -53 callsubr
        </CharString>
        <CharString name="kgreenlandic">
          -125 2 -21 40 -21 1142 -20 35 -20 hstemhm
          110 1031 hintmask 00000000
          hintmask 01011000
          110 hmoveto
          258 hlineto
          146 1132 -52 25 -316 -47 -19 -86 112 -52 rlineto
          433 -877 rmoveto
          hintmask 10101000
          -76 33 51 -38 86 hhcurveto
          131 114 91 46 36 hvcurveto
          -32 59 rlineto
          -21 -37 -37 -12 -20 hhcurveto
          -31 -43 37 59 -32 hvcurveto
          -205 383 455 519 rlineto
          -251 hlineto
          -435 -546 rlineto
          endchar
        </CharString>
        <CharString name="l">
          -649 -20 14 callgsubr
          hintmask 00000000
          hintmask 01110000
          29 callgsubr
          hintmask 10110000
          -81 callgsubr
          hintmask 01110000
          16 callsubr
          endchar
        </CharString>
        <CharString name="lacute">
          -650 1 -21 1547 -20 179 -21 hstemhm
          109 268 -14 431 hintmask 00000000
          hintmask 11010000
          109 115 rmoveto
          -97 -1 72 -38 94 hhcurveto
          131 91 100 25 18 hvcurveto
          -29 62 rlineto
          -30 -45 -19 -6 -16 hhcurveto
          -26 -7 29 47 5 hvcurveto
          184 1293 -50 27 -334 -42 -20 -83 127 -43 -168 -1167 rlineto
          -1 -8 -6 -57 -12 vvcurveto
          hintmask 00101000
          338 1477 -89 callsubr
          endchar
        </CharString>
        <CharString name="lcaron">
          -513 -18 151 -130 -21 1028 640 -123 -20 hstemhm
          113 268 342 207 hintmask 00000000
          hintmask 01011000
          113 117 -49 callgsubr
          hintmask 10011000
          -81 callgsubr
          hintmask 01011000
          16 callsubr
          hintmask 00100100
          665 893 -75 callsubr
        </CharString>
        <CharString name="lcommaaccent">
          -649 -8 callsubr
          485 14 callgsubr
          -251 44 callgsubr
          hintmask 11000010
          69 -156 -104 callsubr
          hintmask 00000000
          -95 159 -49 callgsubr
          hintmask 00011100
          -81 callgsubr
          hintmask 00101100
          16 callsubr
          endchar
        </CharString>
        <CharString name="ldot">
          -460 -20 151 -130 -21 666 -21 900 -20 hstemhm
          113 268 195 309 hintmask 00000000
          hintmask 01011000
          29 callgsubr
          hintmask 10011000
          -81 callgsubr
          hintmask 01011000
          16 callsubr
          hintmask 00100100
          463 653 -80 callsubr
          endchar
        </CharString>
        <CharString name="less">
          98 176 1148 hstem
          195 1025 vstem
          195 686 rmoveto
          890 -510 25 219 -657 354 739 348 28 227 -1009 -510 rlineto
          endchar
        </CharString>
        <CharString name="lessequal">
          94 -1 160 hstem
          140 1065 vstem
          198 689 rmoveto
          896 -443 24 207 -614 273 677 270 24 208 -998 -437 rlineto
          -67 -768 42 callgsubr
        </CharString>
        <CharString name="logicalnot">
          100 711 152 hstem
          211 987 vstem
          211 711 rmoveto
          773 hlineto
          -45 -389 rlineto
          197 hlineto
          62 541 rlineto
          -970 hlineto
          endchar
        </CharString>
        <CharString name="lozenge">
          94 16 -21 hstem
          157 1049 vstem
          588 -5 rmoveto
          187 hlineto
          431 696 rlineto
          54 vlineto
          -431 696 rlineto
          -187 hlineto
          -431 -696 rlineto
          -54 vlineto
          524 -490 rmoveto
          -302 517 302 517 302 -517 rlineto
          endchar
        </CharString>
        <CharString name="lslash">
          -650 -20 14 callgsubr
          hintmask 00000000
          hintmask 01110000
          29 callgsubr
          hintmask 10110000
          -29 62 rlineto
          -47 -56 -24 -9 -20 hhcurveto
          -26 -9 29 47 7 hvcurveto
          88 646 180 71 rlineto
          147 vlineto
          -159 -65 84 617 -50 27 -334 -42 -20 -83 127 -43 -81 -588 -160 -65 rlineto
          -137 vlineto
          140 55 -76 -555 rlineto
          hintmask 01110000
          16 callsubr
          endchar
        </CharString>
        <CharString name="m">
          648 25 callsubr
          -24 -20 hstemhm
          857 264 280 273 -183 273 hintmask 00000000
          hintmask 00101101
          106 hmoveto
          259 hlineto
          103 752 rlineto
          hintmask 00110101
          -43 callgsubr
          hintmask 01001110
          19 callsubr
          hintmask 10001110
          21 callsubr
          hintmask 00110101
          -16 callsubr
          hintmask 00101101
          18 209 rlineto
          hintmask 00110101
          56 callgsubr
          endchar
        </CharString>
        <CharString name="macron">
          -656 1415 179 hstem
          26 542 vstem
          26 1415 -60 callsubr
          endchar
        </CharString>
        <CharString name="macron.cap">
          -656 1718 179 hstem
          51 542 vstem
          51 14 callsubr
          endchar
        </CharString>
        <CharString name="minus">
          8 callsubr
        </CharString>
        <CharString name="minute">
          -647 1190 592 hstem
          284 324 vstem
          284 1190 26 callgsubr
          endchar
        </CharString>
        <CharString name="mu">
          -76 callgsubr
        </CharString>
        <CharString name="multiply">
          100 300 930 hstem
          217 994 vstem
          333 301 rmoveto
          59 55 250 238 59 56 281 -350 rcurveline
          148 138 -301 327 382 326 -115 139 -59 -56 -250 -238 -60 -56 rlinecurve
          -281 350 -147 -137 301 -327 -383 -327 rlineto
          endchar
        </CharString>
        <CharString name="n">
          9 0 55 callgsubr
          758 16 callgsubr
          hintmask 00000000
          hintmask 01010100
          107 hmoveto
          12 callgsubr
          hintmask 01100100
          -58 callgsubr
          hintmask 10011000
          -83 callsubr
          hintmask 01100100
          -54 callsubr
          hintmask 01010100
          18 208 rlineto
          hintmask 01100100
          -7 callsubr
          endchar
        </CharString>
        <CharString name="nacute">
          13 0 -23 callgsubr
          -24 -20 122 502 hstemhm
          620 484 -344 16 callgsubr
          hintmask 00001100
          698 1241 -87 callgsubr
          hintmask 00000000
          -511 -1312 -71 callsubr
        </CharString>
        <CharString name="nbspace">
          -785 endchar
        </CharString>
        <CharString name="ncaron">
          13 0 -23 callgsubr
          -24 -20 128 413 hstemhm
          403 725 -368 16 callgsubr
          hintmask 00001100
          620 -77 callgsubr
          hintmask 00000000
          -294 -1602 -71 callsubr
        </CharString>
        <CharString name="ncommaaccent">
          13 -8 callsubr
          505 55 callgsubr
          474 223 63 16 callgsubr
          -31 callgsubr
          hintmask 1100001000000000
          413 -156 -104 callsubr
          -31 callgsubr
          -443 44 rmoveto
          12 callgsubr
          hintmask 0001010010000000
          -58 callgsubr
          hintmask 0001100010000000
          -83 callsubr
          hintmask 0010010100000000
          -54 callsubr
          hintmask 0001100010000000
          18 208 rlineto
          hintmask 0001010010000000
          -7 callsubr
          endchar
        </CharString>
        <CharString name="nine">
          -23 152 153 736 121 hstem
          113 264 474 262 vstem
          199 -320 rmoveto
          44 -111 rlineto
          484 114 386 469 508 vvcurveto
          327 -160 175 -268 vhcurveto
          -350 -1 -222 -310 -309 vvcurveto
          -195 98 -195 273 165 84 61 60 62 vhcurveto
          -96 -256 -195 -232 -305 -105 rrcurveto
          346 625 rmoveto
          -93 -75 87 207 180 69 262 192 169 44 -165 -177 -75 -8 -90 -18 -75 hvcurveto
          -56 -42 -83 -98 -155 hhcurveto
          endchar
        </CharString>
        <CharString name="notequal">
          -244 21 -21 41 callsubr
          132 hmoveto
          189 hlineto
          144 324 rlineto
          428 hlineto
          21 177 rlineto
          -370 hlineto
          153 342 rlineto
          268 hlineto
          20 177 rlineto
          -209 hlineto
          136 304 rlineto
          -189 hlineto
          -136 -304 rlineto
          -417 hlineto
          -20 -177 rlineto
          358 hlineto
          -153 -342 rlineto
          -256 hlineto
          -21 -177 rlineto
          198 hlineto
          endchar
        </CharString>
        <CharString name="ntilde">
          13 0 -23 callgsubr
          -24 -20 214 48 callgsubr
          371 746 -357 16 callgsubr
          -31 callgsubr
          hintmask 0101000010000000
          109 hmoveto
          12 callgsubr
          hintmask 0110000010000000
          -58 callgsubr
          hintmask 1001000100000000
          -83 callsubr
          hintmask 0110000010000000
          -54 callsubr
          hintmask 0101000010000000
          18 208 rlineto
          hintmask 0110000010000000
          -7 callsubr
          -31 callgsubr
          194 429 -44 callgsubr
          hintmask 0000011000000000
          -91 callgsubr
          hintmask 0000101000000000
          -72 callgsubr
          endchar
        </CharString>
        <CharString name="numbersign">
          135 21 -21 365 154 355 151 hstem
          111 1195 vstem
          252 hmoveto
          192 hlineto
          62 365 rlineto
          282 hlineto
          -51 -365 rlineto
          190 hlineto
          57 365 rlineto
          224 hlineto
          16 154 rlineto
          -213 hlineto
          56 355 rlineto
          227 hlineto
          12 151 rlineto
          -217 hlineto
          54 332 rlineto
          -195 hlineto
          -56 -332 rlineto
          -281 hlineto
          51 332 rlineto
          -195 hlineto
          -53 -332 rlineto
          -217 hlineto
          -12 -151 rlineto
          207 hlineto
          -55 -355 rlineto
          -210 hlineto
          -16 -154 rlineto
          199 hlineto
          223 154 rmoveto
          56 355 rlineto
          281 hlineto
          -55 -355 rlineto
          endchar
        </CharString>
        <CharString name="o">
          -29 callgsubr
          hstem
          74 282 451 284 vstem
          -79 callgsubr
          endchar
        </CharString>
        <CharString name="oacute">
          -29 callgsubr
          78 502 53 callgsubr
          209 484 -242 284 hintmask 00101000
          643 1241 -87 callgsubr
          hintmask 11010100
          -491 -873 -106 callsubr
          endchar
        </CharString>
        <CharString name="obreve">
          -29 callgsubr
          137 182 53 callgsubr
          28 148 275 284 hintmask 11010100
          -79 callgsubr
          hintmask 00101000
          151 1195 -98 callgsubr
        </CharString>
        <CharString name="ocircumflex">
          -29 callgsubr
          65 432 53 callgsubr
          -46 725 -228 284 hintmask 00101000
          392 1229 -88 callgsubr
          hintmask 11010100
          -236 -847 -106 callsubr
          endchar
        </CharString>
        <CharString name="odieresis">
          -29 callgsubr
          57 callgsubr
          53 callgsubr
          -23 297 139 297 -259 284 hintmask 00000000
          hintmask 00101100
          898 1363 -99 callsubr
          hintmask 11010010
          -388 -924 -106 callsubr
          endchar
        </CharString>
        <CharString name="oe">
          491 -20 125 -125 159 319 115 460 130 -127 127 53 callgsubr
          449 267 376 263 hintmask 00000000
          hintmask 10110111
          74 439 rmoveto
          -291 8 141 -168 269 hhcurveto
          148 131 58 94 99 hvcurveto
          -91 67 108 -61 159 hhcurveto
          226 158 134 83 56 hvcurveto
          -55 93 rlineto
          hintmask 01110111
          -88 -84 -105 -63 -130 hhcurveto
          -149 -59 151 168 7 hvcurveto
          221 6 427 129 -6 320 rrcurveto
          141 -2 -94 109 -210 hhcurveto
          -153 -137 -64 -105 -106 hvcurveto
          109 -65 -112 60 -159 hhcurveto
          hintmask 10110111
          -370 -239 -346 -378 10 hvcurveto
          998 134 rmoveto
          hintmask 10101111
          177 15 78 286 179 hhcurveto
          64 39 -47 -98 1 hvcurveto
          hintmask 10110111
          4 -200 -241 -111 -139 -7 rrcurveto
          -540 -468 rmoveto
          -120 -51 119 212 -5 hvcurveto
          255 -6 80 342 204 hhcurveto
          159 21 -217 -205 -9 hvcurveto
          -12 -55 -6 -56 -2 -59 rrcurveto
          -186 -35 -81 -150 -137 hhcurveto
          endchar
        </CharString>
        <CharString name="ogonek">
          -704 -434 154 hstemhm
          34 232 hintmask 00000000
          hintmask 11000000
          75 -169 rmoveto
          -22 -34 -18 -48 -1 -36 rrcurveto
          -80 -1 54 -67 112 hhcurveto
          124 96 57 62 64 hvcurveto
          -30 99 rlineto
          -42 -53 -38 -22 -43 hhcurveto
          -31 -23 20 57 1 hvcurveto
          1 66 82 81 101 79 -71 36 rcurveline
          -57 -24 -77 -45 -91 -40 -79 -119 rlinecurve
          endchar
        </CharString>
        <CharString name="ograve">
          -29 callgsubr
          83 497 53 callgsubr
          -94 466 79 284 hintmask 11010100
          -79 callgsubr
          hintmask 00101000
          114 1141 -74 callsubr
        </CharString>
        <CharString name="ohungarumlaut">
          -29 callgsubr
          79 485 53 callgsubr
          -15 865 -399 284 hintmask 00101000
          879 1242 -51 callsubr
          hintmask 11010100
          -267 -857 -106 callsubr
          endchar
        </CharString>
        <CharString name="omacron">
          -29 callgsubr
          252 179 53 callgsubr
          30 542 -121 284 hintmask 00101000
          386 1415 -60 callsubr
          hintmask 11010100
          -314 -1155 -106 callsubr
          endchar
        </CharString>
        <CharString name="one">
          -340 0 97 1065 -20 hstem
          86 688 vstem
          86 hmoveto
          678 hlineto
          10 97 -211 28 142 1009 -124 28 -106 -73 -195 -98 -140 -31 rlinecurve
          17 -110 87 15 82 18 77 19 rlinecurve
          -107 -778 -200 -27 rlineto
          endchar
        </CharString>
        <CharString name="onehalf">
          1290 -78 141 -42 -21 636 98 40 168 588 56 callsubr
          353 237 hintmask 10010001
          1455 -78 -45 callsubr
          hintmask 01001010
          -614 -18 rmoveto
          -3 callsubr
          hintmask 00100100
          -1204 -894 -48 callgsubr
        </CharString>
        <CharString name="onequarter">
          1290 21 -21 161 138 -138 168 307 98 796 56 callsubr
          -314 1029 hintmask 00000000
          hintmask 01000001
          1862 -176 rmoveto
          225 hlineto
          hintmask 00100001
          -13 callsubr
          hintmask 01000001
          -36 callsubr
          hintmask 10001010
          -1113 -161 rmoveto
          -3 callsubr
          hintmask 00010100
          -1204 -894 -48 callgsubr
        </CharString>
        <CharString name="onesuperior">
          -250 636 98 hstem
          242 667 vstem
          242 636 -48 callgsubr
        </CharString>
        <CharString name="ordfeminine">
          -416 743 109 -109 128 604 102 -28 -20 hstemhm
          69 234 hintmask 00000000
          hintmask 01011000
          308 743 rmoveto
          130 73 66 60 50 hvcurveto
          hintmask 10011000
          -73 -12 44 -53 75 hhcurveto
          85 108 67 15 11 hvcurveto
          -28 47 rlineto
          -17 -31 -14 -3 -11 hhcurveto
          -11 -5 21 33 4 hvcurveto
          119 680 -125 -37 rlineto
          hintmask 01101000
          15 -45 -68 13 -59 hhcurveto
          -303 -1 -226 -282 -254 vvcurveto
          hintmask 01011000
          -183 85 -114 154 vhcurveto
          105 128 rmoveto
          -83 -27 64 120 hvcurveto
          hintmask 01101000
          194 75 226 195 25 27 -12 -21 23 vhcurveto
          -86 -498 rlineto
          hintmask 01011000
          -37 -40 -58 -36 -51 hhcurveto
          endchar
        </CharString>
        <CharString name="ordmasculine">
          -416 733 110 643 103 hstem
          73 229 355 231 vstem
          413 733 rmoveto
          238 -2 237 178 325 vvcurveto
          206 -121 147 -220 2 vhcurveto
          -222 2 -252 -182 -324 vvcurveto
          -213 140 -137 200 -2 vhcurveto
          11 110 rmoveto
          -68 1 -54 100 159 vvcurveto
          160 50 222 172 1 vhcurveto
          84 1 49 -112 -159 vvcurveto
          -175 -46 -200 -187 2 vhcurveto
          endchar
        </CharString>
        <CharString name="oslash">
          -100 -18 125 928 130 hstem
          74 282 451 284 vstem
          61 -83 rmoveto
          89 -49 118 168 rlineto
          -36 61 75 -18 90 hhcurveto
          365 242 345 378 -10 hvcurveto
          -4 156 -44 121 -81 79 135 193 rcurveline
          -89 49 -129 -183 rlineto
          29 -58 -70 16 -81 hhcurveto
          -364 -241 -346 -378 9 hvcurveto
          4 -148 39 -115 72 -79 rrcurveto
          173 239 rmoveto
          -3 31 -2 34 -1 37 rrcurveto
          255 -6 81 340 204 hhcurveto
          53 40 -24 -49 28 hvcurveto
          -361 -759 rmoveto
          402 634 6 -38 3 -43 1 -49 rlinecurve
          -259 6 -75 -341 -204 hhcurveto
          -65 -45 32 64 -29 hvcurveto
          endchar
        </CharString>
        <CharString name="otilde">
          -29 callgsubr
          170 48 callgsubr
          74 282 -40 746 -255 284 hintmask 11001010
          -79 callgsubr
          hintmask 00000000
          -156 1287 -44 callgsubr
          hintmask 00010100
          -91 callgsubr
          hintmask 00100100
          -72 callgsubr
          endchar
        </CharString>
        <CharString name="p">
          -75 37 callsubr
          -24 -20 hstemhm
          846 275 hintmask 00000000
          hintmask 01101000
          348 -8 rmoveto
          hintmask 10101000
          7 callgsubr
          hintmask 10011000
          14 102 rlineto
          hintmask 10101000
          -34 callsubr
          endchar
        </CharString>
        <CharString name="paragraph">
          94 0 87 1327 157 -122 103 hstemhm
          110 1283 hintmask 00000000
          hintmask 11010000
          196 hmoveto
          409 hlineto
          177 1414 rlineto
          194 hlineto
          -175 -1414 rlineto
          386 hlineto
          9 86 -145 30 rlineto
          hintmask 10110000
          49 415 66 471 49 414 167 33 rcurveline
          hintmask 11010000
          11 103 rlineto
          -278 hlineto
          3 -160 -72 16 -168 hhcurveto
          -429 -178 -180 -296 2 hvcurveto
          2 -218 150 -148 207 -3 -80 -609 rcurveline
          -185 -30 rlineto
          endchar
        </CharString>
        <CharString name="parenleft">
          -401 1703 -21 hstem
          190 244 vstem
          190 505 rmoveto
          -513 287 -276 74 -50 vhcurveto
          17 hlineto
          123 74 rlineto
          -71 60 -186 271 441 vvcurveto
          74 8 104 12 83 vhcurveto
          86 527 313 328 84 54 -107 74 rcurveline
          -98 -53 -449 -392 -78 -587 rrcurveto
          -10 -77 -5 -73 -69 vvcurveto
          endchar
        </CharString>
        <CharString name="parenright">
          -396 -275 21 hstem
          443 244 vstem
          687 923 rmoveto
          513 -287 276 -74 50 vhcurveto
          -17 hlineto
          -123 -74 rlineto
          71 -60 186 -271 -441 vvcurveto
          -74 -8 -104 -12 -83 vhcurveto
          -86 -527 -313 -328 -84 -54 107 -74 rcurveline
          98 53 449 392 78 587 rrcurveto
          10 77 5 73 69 vvcurveto
          endchar
        </CharString>
        <CharString name="partialdiff">
          94 -24 136 766 144 518 142 -131 -20 hstemhm
          159 241 599 236 hintmask 00000000
          hintmask 11011100
          159 434 rmoveto
          -217 -9 148 -241 289 hhcurveto
          528 120 562 423 hvcurveto
          hintmask 11101100
          284 -127 437 -453 -125 -155 -40 -91 -111 vhcurveto
          96 -86 rlineto
          61 95 65 14 65 hhcurveto
          318 92 -283 -305 4 hvcurveto
          39 -61 -86 31 -100 hhcurveto
          hintmask 11011100
          -323 -255 -226 -362 -15 hvcurveto
          241 52 rmoveto
          281 13 173 111 103 hhcurveto
          144 96 -46 -67 63 hvcurveto
          -4 -41 -4 -41 -5 -39 rrcurveto
          -251 -33 -87 -281 -228 hhcurveto
          -173 -65 217 157 7 hvcurveto
          endchar
        </CharString>
        <CharString name="percent">
          641 -4 callgsubr
          -31 callgsubr
          hintmask 1110111111000000
          381 hmoveto
          189 hlineto
          947 1530 rlineto
          -189 hlineto
          hintmask 1101111111000000
          -41 callsubr
          hintmask 1110111111000000
          525 -472 -68 callsubr
          endchar
        </CharString>
        <CharString name="period">
          -729 0 -21 hstem
          74 309 vstem
          74 122 -80 callsubr
          endchar
        </CharString>
        <CharString name="periodcentered">
          -569 646 -21 hstem
          189 309 vstem
          189 768 -80 callsubr
          endchar
        </CharString>
        <CharString name="perthousand">
          1443 -4 callgsubr
          72 201 309 210 hintmask 0110000000110000
          1819 376 -68 callsubr
          -31 callgsubr
          -1639 -378 rmoveto
          189 hlineto
          947 1530 rlineto
          -189 hlineto
          hintmask 1110111111000000
          -41 callsubr
          hintmask 1101111111000000
          525 -472 -68 callsubr
          endchar
        </CharString>
        <CharString name="pi">
          351 -22 208 727 228 hstem
          868 236 vstem
          118 135 rmoveto
          162 -159 166 14 159 102 56 348 rlinecurve
          77 473 rlineto
          236 hlineto
          -75 -433 -31 -202 -93 vvcurveto
          -124 73 -83 138 233 127 188 175 33 vhcurveto
          -144 hlineto
          -33 -114 -70 -43 -57 2 -45 1 -21 44 2 59 4 74 3 94 58 455 rrcurveto
          44 hlineto
          208 101 142 191 15 hvcurveto
          -143 hlineto
          -81 -26 -55 -24 -83 hhcurveto
          -735 hlineto
          -123 -125 -48 -119 -60 hvcurveto
          -24 -49 -3 -69 1 -50 131 -15 rcurveline
          24 63 67 61 66 -1 rrcurveto
          101 hlineto
          -107 -415 -49 -183 -73 -139 -203 -42 rlinecurve
          endchar
        </CharString>
        <CharString name="plus">
          76 683 178 hstem
          250 915 vstem
          548 285 rmoveto
          199 hlineto
          28 241 3 55 5 54 2 -9 callgsubr
          -138 11 rlineto
          -221 35 callgsubr
          endchar
        </CharString>
        <CharString name="plusminus">
          80 15 165 503 178 hstem
          180 984 vstem
          547 285 rmoveto
          199 hlineto
          27 241 3 55 5 54 3 -9 callgsubr
          -139 11 rlineto
          -220 35 callgsubr
          -394 -511 rmoveto
          859 hlineto
          17 165 rlineto
          -859 hlineto
          endchar
        </CharString>
        <CharString name="product">
          489 -175 96 1490 126 -115 115 hstemhm
          353 269 585 269 hintmask 00000000
          hintmask 11011000
          174 -78 rmoveto
          -97 628 97 vlineto
          -180 37 rlineto
          1452 585 -1453 vlineto
          -184 -37 rlineto
          -96 637 96 vlineto
          -184 38 rlineto
          hintmask 10111000
          1439 vlineto
          187 24 rlineto
          hintmask 11011000
          115 -1492 vlineto
          hintmask 10111000
          -115 vlineto
          182 -24 rlineto
          -1439 vlineto
          endchar
        </CharString>
        <CharString name="q">
          -79 -518 151 -130 -21 498 -42 callsubr
          -15 -20 hstemhm
          72 273 hintmask 00000000
          hintmask 01110100
          409 -20 rmoveto
          126 96 59 66 65 hvcurveto
          -65 -471 rlineto
          -88 -5 45 -64 118 hhcurveto
          150 105 115 29 19 hvcurveto
          hintmask 10101100
          -29 63 rlineto
          -43 -51 -26 -13 -22 hhcurveto
          -25 -11 39 35 5 hvcurveto
          191 1441 rlineto
          hintmask 01110100
          -128 -28 -1 -1 rlineto
          21 -59 -95 23 -78 hhcurveto
          -437 -225 39 callsubr
          100 -187 237 hvcurveto
          87 158 rmoveto
          -94 -57 52 callsubr
          97 357 265 42 39 -6 -15 33 hvcurveto
          -102 -737 rlineto
          -67 -50 -82 -69 -91 hhcurveto
          endchar
        </CharString>
        <CharString name="question">
          -284 0 -21 1647 197 hstemhm
          253 210 -171 319 179 219 hintmask 00000000
          hintmask 11101000
          329 473 rmoveto
          15 -1 150 49 -9 35 -25 64 3 68 rlinecurve
          14 265 532 -46 490 vvcurveto
          206 -107 220 -378 -84 -131 -33 -30 -30 vhcurveto
          -44 -180 rlineto
          28 57 80 18 59 hhcurveto
          210 153 -137 -186 -4 hvcurveto
          -1 -32 -9 -41 -10 -28 -34 -56 -87 -61 -112 -61 rrcurveto
          -157 -90 -127 -85 -134 vvcurveto
          -98 31 -99 45 -45 vhcurveto
          hintmask 11011000
          -37 -360 rmoveto
          -78 56 -56 69 89 105 67 121 68 -43 61 -90 -83 -103 -76 -107 vhcurveto
          endchar
        </CharString>
        <CharString name="questiondown">
          -249 -409 197 hstemhm
          73 221 187 319 -151 215 hintmask 00000000
          hintmask 11100000
          608 1119 rmoveto
          86 106 70 113 73 -50 60 -81 -86 -102 -72 -115 -74 49 -55 78 hvcurveto
          -535 -1115 rmoveto
          -206 124 -207 378 84 116 33 30 30 vhcurveto
          42 180 rlineto
          -28 -57 -78 -18 -59 hhcurveto
          -210 -153 137 187 4 hvcurveto
          1 32 9 37 10 28 34 56 87 61 112 61 rrcurveto
          hintmask 11010000
          164 95 153 100 152 vvcurveto
          84 -29 87 -36 40 vhcurveto
          -15 1 -158 -53 rlineto
          4 -24 19 -45 -43 vvcurveto
          hintmask 11100000
          -7 -349 -569 72 -500 vvcurveto
          endchar
        </CharString>
        <CharString name="quotedbl">
          -213 966 721 hstemhm
          224 336 163 336 hintmask 11000000
          224 966 27 callgsubr
          hintmask 10100000
          420 -721 27 callgsubr
          endchar
        </CharString>
        <CharString name="quotedblbase">
          -99 -449 21 508 20 hstemhm
          238 241 238 241 hintmask 11100000
          294 -27 callgsubr
          hintmask 11010000
          479 -27 callsubr
        </CharString>
        <CharString name="quotedblleft">
          -99 1138 -20 549 -21 hstemhm
          201 241 248 241 hintmask 11010000
          875 927 rmoveto
          -55 callgsubr
          hintmask 11100000
          -489 hmoveto
          -55 callgsubr
          endchar
        </CharString>
        <CharString name="quotedblright">
          -99 990 21 508 20 hstemhm
          426 241 248 241 hintmask 11010000
          971 -29 callsubr
          hintmask 11100000
          -489 -27 callsubr
        </CharString>
        <CharString name="quoteleft">
          -578 1138 -20 549 -21 hstem
          200 241 vstem
          385 927 rmoveto
          -55 callgsubr
          endchar
        </CharString>
        <CharString name="quotereversed">
          -578 926 804 hstem
          200 212 vstem
          405 926 rmoveto
          86 85 7 22 rlineto
          -53 28 -33 80 87 vvcurveto
          119 79 154 127 18 vhcurveto
          13 41 -96 170 rlineto
          -205 -48 -130 -190 -192 vvcurveto
          -164 96 -155 109 -55 vhcurveto
          endchar
        </CharString>
        <CharString name="quoteright">
          -578 990 21 508 20 hstem
          417 241 vstem
          473 -29 callsubr
          endchar
        </CharString>
        <CharString name="quotesinglbase">
          -588 -449 21 508 20 hstem
          247 241 vstem
          303 -27 callgsubr
          endchar
        </CharString>
        <CharString name="quotesingle">
          -712 966 721 hstem
          219 336 vstem
          219 966 27 callgsubr
          endchar
        </CharString>
        <CharString name="r">
          27 callsubr
          hstemhm
          108 770 hintmask 00000000
          hintmask 10011000
          108 hmoveto
          -35 callgsubr
          hintmask 10101000
          57 282 rlineto
          hintmask 10011000
          -19 callgsubr
          hintmask 11001000
          250 vlineto
          hintmask 10011000
          0 callgsubr
        </CharString>
        <CharString name="racute">
          27 callsubr
          98 502 hstemhm
          108 770 -529 484 hintmask 00001010
          427 1241 -87 callgsubr
          hintmask 00000000
          -241 -1312 -39 callgsubr
        </CharString>
        <CharString name="radical">
          317 -363 2280 hstem
          72 1621 vstem
          149 440 rmoveto
          40 21 52 29 45 23 268 -876 rcurveline
          223 hlineto
          916 2280 rlineto
          -263 hlineto
          -747 -2003 -201 815 rlineto
          -201 hlineto
          -209 -151 rlineto
          endchar
        </CharString>
        <CharString name="rcaron">
          27 callsubr
          104 413 hstemhm
          108 770 -746 725 hintmask 00001010
          349 -77 callgsubr
          hintmask 00000000
          -24 -1602 -39 callgsubr
        </CharString>
        <CharString name="rcommaaccent">
          -430 -8 callsubr
          526 37 callgsubr
          hstemhm
          108 770 -739 44 callgsubr
          hintmask 11000001
          78 -156 -104 callsubr
          hintmask 00000000
          -109 44 rmoveto
          -35 callgsubr
          hintmask 00100110
          57 282 rlineto
          hintmask 00101010
          -19 callgsubr
          hintmask 00100110
          250 vlineto
          hintmask 00110010
          0 callgsubr
        </CharString>
        <CharString name="registered">
          498 42 116 217 78 -78 94 266 100 305 105 -89 84 214 115 hstemhm
          168 129 353 165 283 182 290 129 -31 callgsubr
          hintmask 1101101110100000
          -47 callgsubr
          270 -431 rmoveto
          345 74 hlineto
          hintmask 1011101110100000
          -97 20 rlineto
          266 78 vlineto
          hintmask 1101101111100000
          -119 168 14 -241 78 hhcurveto
          185 78 hlineto
          -21 -18 3 9 -18 hvcurveto
          -79 55 -15 158 -132 74 rrcurveto
          198 50 27 105 107 vvcurveto
          138 -4 -111 93 -211 hhcurveto
          -150 -3 -16 -4 -72 2 rrcurveto
          hintmask 1011011110100000
          -149 -84 hlineto
          83 -22 rlineto
          -665 vlineto
          hintmask 1101101111100000
          -83 -20 rlineto
          248 394 rmoveto
          287 vlineto
          12 50 21 -2 41 hhcurveto
          102 69 -42 -105 -87 -56 -71 -95 -51 -46 1 7 -35 hvcurveto
          endchar
        </CharString>
        <CharString name="ring">
          -548 1253 115 313 114 hstem
          75 167 321 166 vstem
          368 1253 -73 callsubr
          endchar
        </CharString>
        <CharString name="ring.cap">
          -548 1479 113 303 112 hstem
          60 167 321 167 vstem
          359 1479 -45 callgsubr
        </CharString>
        <CharString name="s">
          2 callgsubr
          hstem
          133 255 125 257 vstem
          25 44 -103 callsubr
          endchar
        </CharString>
        <CharString name="sacute">
          2 callgsubr
          78 502 45 callsubr
          53 484 -412 257 hintmask 00101000
          519 1241 -87 callgsubr
          hintmask 11010100
          -416 -1268 -103 callsubr
          endchar
        </CharString>
        <CharString name="scaron">
          2 callgsubr
          84 413 45 callsubr
          -164 725 -436 257 hintmask 00101000
          441 -77 callgsubr
          hintmask 11010100
          -199 -1558 -103 callsubr
          endchar
        </CharString>
        <CharString name="scedilla">
          -391 -474 155 300 144 -113 -21 1036 136 45 callsubr
          -76 165 36 257 hintmask 00000000
          hintmask 11010110
          25 44 rmoveto
          35 -28 131 -32 119 -3 4 -31 1 -39 -3 -48 -68 callgsubr
          hintmask 10110110
          4 69 -9 82 -17 52 rrcurveto
          174 31 141 102 186 vvcurveto
          169 -108 102 -105 79 vhcurveto
          hintmask 11011010
          -105 78 -70 70 6 93 rrcurveto
          93 7 82 33 84 hhcurveto
          117 80 -64 -24 19 hvcurveto
          40 187 rlineto
          15 -33 -117 22 -108 hhcurveto
          -233 -193 -117 -213 -174 121 -113 81 -59 hvcurveto
          100 -72 78 -61 -96 vvcurveto
          -112 -100 -21 -78 -120 -104 60 35 -44 vhcurveto
          endchar
        </CharString>
        <CharString name="scircumflex">
          2 callgsubr
          65 432 45 callsubr
          -202 725 -398 257 hintmask 00101000
          268 1229 -88 callgsubr
          hintmask 11010100
          -161 -1242 -103 callsubr
          endchar
        </CharString>
        <CharString name="second">
          -234 1190 592 hstemhm
          287 324 89 324 hintmask 11000000
          287 1190 26 callgsubr
          hintmask 10100000
          329 -592 26 callgsubr
          endchar
        </CharString>
        <CharString name="section">
          -76 -186 129 1606 124 hstemhm
          141 225 -155 238 336 235 -153 218 hintmask 00000000
          hintmask 11100100
          53 -106 rmoveto
          -34 52 209 -46 185 hhcurveto
          hintmask 11101000
          241 264 134 247 16 hvcurveto
          5 85 -26 66 -44 55 rrcurveto
          hintmask 11010100
          69 76 55 102 6 125 25 421 -679 -48 18 289 11 156 154 26 95 1 96 1 66 -24 34 -35 41 -208 rcurveline
          142 hlineto
          46 315 rlineto
          34 -54 -142 41 -207 hhcurveto
          -221 -282 -121 -256 -17 hvcurveto
          -6 -89 28 -68 47 -56 rrcurveto
          hintmask 11101000
          -73 -75 -60 -99 -6 -114 -23 -416 683 20 -16 -249 -11 -155 -143 -51 -109 -1 rrcurveto
          -101 -95 23 52 -48 hvcurveto
          -31 216 rlineto
          -146 hlineto
          265 634 rmoveto
          3 43 15 37 20 33 rrcurveto
          hintmask 11100100
          198 -122 279 -57 -14 -194 -2 -37 -12 -36 -18 -32 rrcurveto
          hintmask 11101000
          -198 125 -283 53 12 187 rrcurveto
          endchar
        </CharString>
        <CharString name="semicolon">
          -729 -490 -21 1320 -21 hstemhm
          164 309 -290 227 hintmask 10010000
          -26 callsubr
          hintmask 01100000
          80 794 -80 callsubr
          endchar
        </CharString>
        <CharString name="seven">
          -174 985 160 -42 43 hstemhm
          72 1017 hintmask 00000000
          hintmask 10100000
          211 -249 rmoveto
          273 -81 rlineto
          hintmask 01100000
          605 1433 rlineto
          hintmask 10100000
          -32 43 rlineto
          -907 hlineto
          -78 -371 183 -4 99 206 491 17 rlineto
          endchar
        </CharString>
        <CharString name="six">
          -32 -20 122 730 153 hstem
          115 262 474 264 vstem
          115 499 rmoveto
          -330 159 -189 269 339 233 312 314 205 -106 174 -243 -153 -112 -64 -61 -60 vhcurveto
          88 263 220 243 279 96 -41 109 rcurveline
          -499 -137 -373 -451 -484 vvcurveto
          262 -49 rmoveto
          72 8 76 19 85 vhcurveto
          53 38 90 96 151 hhcurveto
          95 73 -82 -199 -191 -69 -258 -193 -165 -47 151 197 hvcurveto
          endchar
        </CharString>
        <CharString name="slash">
          -416 -362 1959 hstem
          -127 1065 vstem
          75 -362 rmoveto
          863 1959 rlineto
          -204 hlineto
          -861 -1959 rlineto
          endchar
        </CharString>
        <CharString name="space">
          -785 endchar
        </CharString>
        <CharString name="sterling">
          112 -20 143 611 156 525 150 hstem
          1069 246 vstem
          39 -20 rmoveto
          91 101 63 50 45 hvcurveto
          -43 162 163 -70 211 hhcurveto
          383 120 189 173 135 -78 118 -84 59 hvcurveto
          -172 -154 rlineto
          37 -29 51 -63 -68 vvcurveto
          -119 -66 -98 -250 -127 -132 45 25 -111 vhcurveto
          53 80 97 113 41 248 2 12 6 39 9 49 rrcurveto
          296 hlineto
          17 156 rlineto
          -284 hlineto
          15 77 12 69 3 19 rrcurveto
          294 47 112 66 91 hhcurveto
          142 85 -105 -23 10 hvcurveto
          108 189 rlineto
          70 -66 -107 19 -111 hhcurveto
          -298 1 -238 -271 -45 -293 -19 -112 rcurveline
          -170 hlineto
          -18 -156 rlineto
          161 hlineto
          -46 -276 -12 -80 -37 -103 -36 -51 rlinecurve
          -132 1 -118 -84 -5 -71 rrcurveto
          -67 -6 46 -23 51 hhcurveto
          endchar
        </CharString>
        <CharString name="summation">
          317 -175 152 1421 139 hstem
          217 1174 vstem
          217 -67 rmoveto
          17 -108 1096 -1 61 358 -145 31 -119 -223 -631 -27 516 741 -499 707 610 -25 74 -185 rlineto
          151 hlineto
          -30 337 rlineto
          -1072 hlineto
          -19 -139 500 -727 rlineto
          endchar
        </CharString>
        <CharString name="t">
          -540 54 callsubr
          44 callsubr
          hintmask 00000000
          hintmask 01110000
          128 159 -30 callsubr
          hintmask 10110000
          -22 79 rlineto
          -87 callsubr
          hintmask 01110000
          11 callsubr
          endchar
        </CharString>
        <CharString name="tbar">
          -540 -20 165 -144 -21 641 130 254 150 44 callsubr
          hintmask 00000000
          hintmask 01111000
          128 159 -30 callsubr
          hintmask 10111000
          -22 79 rlineto
          -37 -46 -83 -33 -51 hhcurveto
          -60 -19 23 64 36 7 52 9 70 hvcurveto
          31 231 rlineto
          213 hlineto
          16 130 rlineto
          -212 hlineto
          35 254 rlineto
          233 hlineto
          21 150 rlineto
          -235 hlineto
          34 261 rlineto
          -142 hlineto
          -38 -95 -57 -121 -52 -50 -123 -47 rcurveline
          -22 -98 rlineto
          120 hlineto
          -33 -254 rlineto
          -111 hlineto
          -16 -130 rlineto
          110 hlineto
          -36 -276 rlineto
          hintmask 01111000
          11 callsubr
          endchar
        </CharString>
        <CharString name="tcaron">
          -524 54 callsubr
          95 640 44 callsubr
          317 207 hintmask 00000000
          hintmask 01101000
          128 159 -30 callsubr
          hintmask 10101000
          -22 79 rlineto
          -87 callsubr
          hintmask 01101000
          11 callsubr
          hintmask 00010100
          640 1091 -75 callsubr
        </CharString>
        <CharString name="thorn">
          -92 37 callsubr
          363 -20 hstemhm
          831 273 hintmask 00000000
          hintmask 10111000
          81 -20 rmoveto
          -71 -500 rlineto
          252 hlineto
          54 379 rlineto
          hintmask 01111000
          15 133 rlineto
          hintmask 10111000
          -7 37 40 -5 36 hhcurveto
          414 246 387 363 263 -111 170 -231 -127 -99 -62 -68 -65 hvcurveto
          78 590 -53 27 -296 -39 -25 -85 99 -43 rlineto
          77 -1351 rmoveto
          97 733 rlineto
          69 52 82 70 93 hhcurveto
          102 54 -115 -166 -274 -104 -339 -254 -48 -40 6 16 -34 hvcurveto
          endchar
        </CharString>
        <CharString name="three">
          -166 -339 141 1189 171 hstemhm
          656 282 -262 276 hintmask 00000000
          hintmask 11100000
          40 -185 rmoveto
          -18 -136 rlineto
          -10 53 71 -8 58 hhcurveto
          397 337 188 324 166 -102 138 -242 5 hvcurveto
          hintmask 11010000
          193 64 165 149 181 vvcurveto
          191 -167 95 -185 -219 -182 -113 -71 -68 vhcurveto
          52 -113 rlineto
          71 89 102 55 133 hhcurveto
          104 65 -67 -95 -180 -225 -131 -179 -36 hvcurveto
          -18 -145 126 32 rlineto
          hintmask 11100000
          201 10 75 -96 -131 vvcurveto
          -206 -189 -144 -289 -34 -60 5 8 -44 vhcurveto
          endchar
        </CharString>
        <CharString name="threequarters">
          1298 161 138 -138 168 219 46 callsubr
          776 242 -235 248 321 1029 -31 callgsubr
          hintmask 1000000010000000
          1862 -176 rmoveto
          225 hlineto
          hintmask 0100000010000000
          -13 callsubr
          hintmask 1000000010000000
          -36 callsubr
          -31 callgsubr
          -1697 459 13 callsubr
          hintmask 0010111000000000
          -38 callgsubr
          hintmask 0011010100000000
          20 callgsubr
          hintmask 0011011000000000
          595 -748 rmoveto
          -3 callsubr
          endchar
        </CharString>
        <CharString name="threesuperior">
          -199 548 46 callsubr
          734 242 -235 248 hintmask 00000000
          hintmask 10111000
          170 620 13 callsubr
          hintmask 11010100
          -38 callgsubr
          hintmask 11011000
          20 callgsubr
          endchar
        </CharString>
        <CharString name="tilde">
          -454 1333 48 callgsubr
          35 746 hintmask 00000000
          hintmask 01100000
          97 1392 -44 callgsubr
          hintmask 10100000
          -91 callgsubr
          hintmask 01100000
          -72 callgsubr
          endchar
        </CharString>
        <CharString name="tilde.cap">
          -457 1638 -2 callgsubr
          62 746 hintmask 00000000
          hintmask 01110000
          124 1697 -44 callgsubr
          hintmask 10010000
          -91 callgsubr
          hintmask 00110000
          -72 callgsubr
          endchar
        </CharString>
        <CharString name="trademark">
          897 734 83 603 110 -102 101 hstemhm
          1779 168 hintmask 00000000
          hintmask 11010000
          851 734 rmoveto
          311 hlineto
          11 83 -93 15 80 441 26 157 35 -150 138 -554 rlineto
          120 hlineto
          298 631 31 70 -19 -223 -20 -371 -96 -16 -11 -83 rlineto
          360 hlineto
          11 83 -96 16 rlineto
          hintmask 10110000
          21 591 97 9 rlineto
          hintmask 11010000
          12 97 rlineto
          -339 hlineto
          -256 -578 -30 132 -97 446 rlineto
          -351 hlineto
          hintmask 10110000
          -12 -97 99 -9 -112 -592 -107 -15 rlineto
          -655 -83 rmoveto
          430 hlineto
          11 83 -130 16 rlineto
          hintmask 11010000
          84 594 164 -14 8 -141 73 5 32 253 rlineto
          -699 hlineto
          -52 -255 75 1 59 136 165 13 -83 -593 -126 -15 rlineto
          endchar
        </CharString>
        <CharString name="two">
          -21 0 138 853 171 hstem
          768 286 vstem
          85 hmoveto
          968 hlineto
          100 312 -124 41 -124 -174 -538 -41 rlineto
          334 165 353 249 274 vvcurveto
          160 -106 176 -297 -234 -173 -129 -101 -85 vhcurveto
          64 -109 rlineto
          85 84 134 83 138 hhcurveto
          133 56 -91 -119 -215 -345 -261 -363 -197 hvcurveto
          endchar
        </CharString>
        <CharString name="twosuperior">
          -107 637 141 711 168 hstem
          784 237 vstem
          220 637 -45 callsubr
          endchar
        </CharString>
        <CharString name="u">
          -67 callgsubr
          -2 callsubr
          346 254 hintmask 00000000
          hintmask 10001110
          -81 callsubr
          hintmask 01010110
          -88 callsubr
          hintmask 10100110
          -84 callgsubr
          hintmask 10001110
          -84 callsubr
          endchar
        </CharString>
        <CharString name="uacute">
          -67 callgsubr
          98 502 -2 callsubr
          179 484 -317 254 hintmask 0000010100000000
          659 1241 -87 callgsubr
          -31 callgsubr
          -444 -1067 -90 callsubr
          hintmask 1000101010000000
          -88 callsubr
          hintmask 0101001010000000
          -84 callgsubr
          hintmask 1010001010000000
          -84 callsubr
          endchar
        </CharString>
        <CharString name="ubreve">
          -67 callgsubr
          157 182 -2 callsubr
          -2 148 200 -100 callgsubr
          564 1055 -98 callgsubr
        </CharString>
        <CharString name="ucircumflex">
          -67 callgsubr
          85 432 -2 callsubr
          -76 725 -303 254 hintmask 0000010100000000
          408 1229 -88 callgsubr
          -31 callgsubr
          -189 -1041 -90 callsubr
          hintmask 1000101010000000
          -88 callsubr
          hintmask 0101001010000000
          -84 callgsubr
          hintmask 1010001010000000
          -84 callsubr
          endchar
        </CharString>
        <CharString name="udieresis">
          -67 callgsubr
          220 313 -2 callsubr
          -53 297 102 254 -217 297 -31 callgsubr
          hintmask 0000010101000000
          914 1363 -99 callsubr
          -31 callgsubr
          -341 -1118 -90 callsubr
          hintmask 1000101010000000
          -88 callsubr
          hintmask 0101001010000000
          -84 callgsubr
          hintmask 1010001010000000
          -84 callsubr
          endchar
        </CharString>
        <CharString name="ugrave">
          -67 callgsubr
          103 497 -2 callsubr
          -124 466 4 -100 callgsubr
          527 1001 -74 callsubr
        </CharString>
        <CharString name="uhungarumlaut">
          -67 callgsubr
          99 485 -2 callsubr
          -45 865 -474 -100 callgsubr
          758 997 -51 callsubr
          endchar
        </CharString>
        <CharString name="umacron">
          -67 callgsubr
          272 179 -2 callsubr
          0 542 -196 -100 callgsubr
          265 1170 -60 callsubr
          endchar
        </CharString>
        <CharString name="underscore">
          65 -338 151 hstem
          -111 1398 vstem
          -91 -187 rmoveto
          -20 -151 rlineto
          1378 hlineto
          20 151 rlineto
          endchar
        </CharString>
        <CharString name="uni0001">
          endchar
        </CharString>
        <CharString name="uni0002">
          endchar
        </CharString>
        <CharString name="uni0003">
          endchar
        </CharString>
        <CharString name="uni0004">
          endchar
        </CharString>
        <CharString name="uni0005">
          endchar
        </CharString>
        <CharString name="uni0006">
          endchar
        </CharString>
        <CharString name="uni0007">
          endchar
        </CharString>
        <CharString name="uni0008">
          endchar
        </CharString>
        <CharString name="uni0015">
          endchar
        </CharString>
        <CharString name="uni0016">
          endchar
        </CharString>
        <CharString name="uni0017">
          endchar
        </CharString>
        <CharString name="uni0018">
          endchar
        </CharString>
        <CharString name="uni0019">
          endchar
        </CharString>
        <CharString name="uni00AD">
          436 endchar
        </CharString>
        <CharString name="uni0162">
          53 -474 155 319 38 callgsubr
          hstem
          520 165 vstem
          204 hmoveto
          312 hlineto
          5 -32 3 -46 -4 -59 -68 callgsubr
          4 74 -10 87 -19 51 rrcurveto
          335 -83 callgsubr
        </CharString>
        <CharString name="uni0163">
          -540 -474 155 326 -21 25 -21 1015 150 44 callsubr
          -151 165 hintmask 00000000
          hintmask 10111000
          128 159 rmoveto
          -102 49 -49 65 -18 vhcurveto
          hintmask 11010100
          4 -32 3 -42 -4 -53 -68 callgsubr
          3 67 -8 79 -16 52 133 22 110 75 45 53 -22 79 rcurveline
          hintmask 10111000
          -87 callsubr
          11 callsubr
          endchar
        </CharString>
        <CharString name="uni0218">
          -132 -8 callsubr
          482 122 1329 122 hstemhm
          186 257 -57 223 163 263 hintmask 00000000
          hintmask 11000100
          325 -156 -104 callsubr
          hintmask 00111010
          -423 114 -69 callsubr
        </CharString>
        <CharString name="uni0219">
          -391 -8 callsubr
          485 145 902 136 45 callsubr
          -92 223 -6 257 hintmask 00000000
          hintmask 11000100
          235 -156 -104 callsubr
          hintmask 00111010
          -349 88 -103 callsubr
          endchar
        </CharString>
        <CharString name="uni021A">
          53 -8 callsubr
          505 38 callgsubr
          hstemhm
          82 1333 -896 44 callgsubr
          hintmask 11000100
          458 -156 -16 callgsubr
          -393 44 rmoveto
          791 -83 callgsubr
        </CharString>
        <CharString name="uni021B">
          -540 -8 callsubr
          485 23 callgsubr
          44 callsubr
          -128 44 callgsubr
          hintmask 11000010
          207 -156 -104 callsubr
          hintmask 00000000
          -218 203 -30 callsubr
          hintmask 00011100
          -22 79 rlineto
          -87 callsubr
          hintmask 00101100
          11 callsubr
          endchar
        </CharString>
        <CharString name="uni02c9">
          -641 1735 172 hstem
          26 557 vstem
          26 1735 rmoveto
          557 172 -557 hlineto
          endchar
        </CharString>
        <CharString name="uni0394">
          -28 callgsubr
        </CharString>
        <CharString name="uni03A9">
          -78 callgsubr
        </CharString>
        <CharString name="uni03BC">
          -76 callgsubr
        </CharString>
        <CharString name="uni1E02">
          69 25 callgsubr
          163 -21 hstemhm
          593 328 45 289 -255 263 hintmask 0000000110000000
          737 1652 -96 callsubr
          -31 callgsubr
          -737 -1652 rmoveto
          hintmask 1010100001000000
          266 hlineto
          81 120 -17 87 hhcurveto
          hintmask 0110100001000000
          24 callsubr
          hintmask 1010100001000000
          28 callsubr
          hintmask 1010100000100000
          54 callgsubr
          hintmask 1010001001000000
          -13 -105 rlineto
          hintmask 1010010001000000
          32 callsubr
          hintmask 0111000001000000
          10 callsubr
          hintmask 1010100000100000
          -52 -49 -2 3 -49 hvcurveto
          hintmask 0111000001000000
          -14 callgsubr
        </CharString>
        <CharString name="uni1E03">
          -80 -20 130 894 159 57 callgsubr
          -149 -20 hstemhm
          721 317 -195 273 hintmask 11010100
          -52 callgsubr
          hintmask 00101000
          498 1231 rmoveto
          -104 callgsubr
          endchar
        </CharString>
        <CharString name="uni1E0A">
          197 9 callsubr
          163 -21 hstemhm
          700 328 104 290 hintmask 00000110
          844 1652 -96 callsubr
          hintmask 00000000
          -857 -1652 -67 callsubr
        </CharString>
        <CharString name="uni1E0B">
          -53 -32 callsubr
          -14 -20 234 313 -151 -20 hstemhm
          72 273 -29 317 97 252 hintmask 00000000
          hintmask 11001101
          409 -65 callgsubr
          205 1415 15 callgsubr
          rlineto
          hintmask 10101101
          -50 -333 rlineto
          hintmask 11001101
          -77 callsubr
          hintmask 00010010
          -41 1225 rmoveto
          -104 callgsubr
          endchar
        </CharString>
        <CharString name="uni1E1E">
          -86 0 97 1308 124 144 -21 hstemhm
          0 1242 -602 328 hintmask 00101000
          784 1652 -96 callsubr
          hintmask 00000000
          -784 -1652 rmoveto
          -15 callgsubr
          hintmask 11010000
          -13 57 callsubr
          -162 -1274 -144 -29 rlineto
          endchar
        </CharString>
        <CharString name="uni1E1F">
          -563 -7 callgsubr
          24 313 45 callgsubr
          -584 317 hintmask 00000101
          457 1668 rmoveto
          -104 callgsubr
          hintmask 00000000
          -347 -1813 -75 callgsubr
          hintmask 10101010
          17 callsubr
          hintmask 01101010
          -105 callsubr
          hintmask 10110010
          17 callgsubr
          hintmask 10101010
          -76 callsubr
        </CharString>
        <CharString name="uni1E40">
          681 36 callsubr
          143 -21 hstemhm
          -69 2030 -958 328 195 232 hintmask 0000010100000000
          1147 1652 -96 callsubr
          -31 callgsubr
          -1216 -1652 rmoveto
          41 callgsubr
          hintmask 1000101000000000
          30 callsubr
          hintmask 0110001000000000
          18 callgsubr
          hintmask 1010000010000000
          32 1273 rlineto
          hintmask 1001000010000000
          -10 callgsubr
          hintmask 1000101000000000
          40 callsubr
        </CharString>
        <CharString name="uni1E41">
          653 25 callsubr
          -24 -20 244 313 hstemhm
          859 264 -214 317 177 273 -183 273 -31 callgsubr
          hintmask 0010101001000000
          108 hmoveto
          259 hlineto
          103 752 rlineto
          hintmask 0011001001000000
          -43 callgsubr
          hintmask 0100101010000000
          19 callsubr
          hintmask 1000101010000000
          21 callsubr
          hintmask 0011001001000000
          -16 callsubr
          hintmask 0010101001000000
          18 209 rlineto
          hintmask 0011001001000000
          56 callgsubr
          hintmask 0000010100000000
          809 401 rmoveto
          -104 callgsubr
          endchar
        </CharString>
        <CharString name="uni1E56">
          -1 31 callgsubr
          163 -21 hstemhm
          697 328 -20 277 hintmask 0000001100000000
          841 1652 -96 callsubr
          -31 callgsubr
          -842 -1652 rmoveto
          -14 callsubr
          hintmask 1101000010000000
          -104 -79 -17 -108 hhcurveto
          -285 hlineto
          hintmask 1100010010000000
          -13 -105 rlineto
          hintmask 1100100010000000
          33 callgsubr
          hintmask 1110000010000000
          7 callsubr
          hintmask 1101000010000000
          -41 -46 1 10 -51 hvcurveto
          endchar
        </CharString>
        <CharString name="uni1E57">
          -75 37 callsubr
          -24 -20 244 313 hstemhm
          598 317 -69 275 hintmask 00000000
          hintmask 01100010
          348 -8 rmoveto
          hintmask 10100010
          7 callgsubr
          hintmask 10010010
          14 102 rlineto
          hintmask 10100010
          -34 callsubr
          hintmask 00001100
          369 1229 rmoveto
          -104 callgsubr
          endchar
        </CharString>
        <CharString name="uni1E60">
          -6 callsubr
          123 -21 hstemhm
          180 257 134 328 -133 263 hintmask 00101000
          715 1652 -96 callsubr
          hintmask 11010100
          -680 -1582 -69 callsubr
        </CharString>
        <CharString name="uni1E61">
          2 callgsubr
          57 callgsubr
          45 callsubr
          33 317 -225 257 hintmask 11010100
          25 44 -103 callsubr
          hintmask 00101000
          493 1143 rmoveto
          -104 callgsubr
          endchar
        </CharString>
        <CharString name="uni1E6A">
          53 0 38 callgsubr
          143 -21 hstemhm
          82 1333 -753 328 hintmask 00101000
          806 1652 -96 callsubr
          hintmask 11010000
          -602 -1652 rmoveto
          791 -83 callgsubr
        </CharString>
        <CharString name="uni1E6B">
          -540 54 callsubr
          330 313 44 callsubr
          -65 317 hintmask 00000000
          hintmask 01101000
          128 159 -30 callsubr
          hintmask 10101000
          -22 79 rlineto
          -87 callsubr
          hintmask 01101000
          11 callsubr
          hintmask 00010100
          342 1326 rmoveto
          -104 callgsubr
          endchar
        </CharString>
        <CharString name="uni2113">
          -56 -29 151 1355 203 hstem
          268 170 455 204 vstem
          53 123 rmoveto
          114 -93 56 42 56 44 54 46 rlinecurve
          -124 58 94 -67 115 hhcurveto
          254 153 212 255 32 hvcurveto
          -189 31 rlineto
          -211 -17 -112 -136 -110 hhcurveto
          -53 -57 54 109 -33 hvcurveto
          361 348 268 432 368 vvcurveto
          145 -78 102 -127 -362 -262 -605 -556 -73 6 -66 11 -59 vhcurveto
          -71 -68 -77 -66 -84 -64 rrcurveto
          385 355 rmoveto
          38 vlineto
          396 228 565 181 25 21 -30 -34 -243 -148 -349 -307 -343 vhcurveto
          endchar
        </CharString>
        <CharString name="uni2215">
          -416 -363 1962 hstem
          -49 952 vstem
          -49 -363 rmoveto
          177 hlineto
          775 1962 rlineto
          -177 hlineto
          endchar
        </CharString>
        <CharString name="uni2219">
          -584 646 -21 hstem
          182 309 vstem
          182 768 -80 callsubr
          endchar
        </CharString>
        <CharString name="uogonek">
          -28 58 callgsubr
          267 153 -120 -21 1147 -20 36 -20 28 -20 -2 callsubr
          192 237 hintmask 00000000
          hintmask 11000111
          137 245 rmoveto
          -201 1 135 -64 137 hhcurveto
          165 106 79 76 70 hvcurveto
          hintmask 10101011
          -11 -70 24 -52 62 -21 -62 -33 -65 -42 -62 -86 -47 callsubr
          67 86 76 108 78 73 36 50 56 12 21 -29 63 rcurveline
          -46 -56 -21 -11 -22 hhcurveto
          -26 -12 24 52 7 hvcurveto
          126 947 rlineto
          -259 hlineto
          -122 -908 rlineto
          hintmask 11010011
          -84 callgsubr
          hintmask 11000111
          -84 callsubr
          endchar
        </CharString>
        <CharString name="uring">
          -67 callgsubr
          110 115 313 114 -2 callsubr
          7 167 172 254 -105 166 hintmask 0000011010100000
          702 1253 -73 callsubr
          -31 callgsubr
          -583 -1123 -90 callsubr
          hintmask 1000100101000000
          -88 callsubr
          hintmask 0101000101000000
          -84 callgsubr
          hintmask 1010000101000000
          -84 callsubr
          endchar
        </CharString>
        <CharString name="utilde">
          -67 callgsubr
          190 48 callgsubr
          137 265 -70 746 -330 254 -31 callgsubr
          hintmask 1000100101000000
          -81 callsubr
          hintmask 0101000101000000
          -88 callsubr
          hintmask 1010000101000000
          -84 callgsubr
          hintmask 1000100101000000
          -84 callsubr
          -31 callgsubr
          257 1147 -44 callgsubr
          hintmask 0000001010000000
          -91 callgsubr
          hintmask 0000010010000000
          -72 callgsubr
          endchar
        </CharString>
        <CharString name="v">
          -200 0 -21 1184 -20 hstemhm
          6 1036 -277 277 hintmask 00000000
          hintmask 11100000
          323 -21 rmoveto
          172 12 245 312 rlineto
          hintmask 11010000
          127 179 177 288 -2 185 rrcurveto
          116 -1 -31 92 -118 hhcurveto
          -80 -47 -47 -76 -57 36 -65 -5 -67 hvcurveto
          -22 -199 -76 -141 -92 -158 -94 -148 rcurveline
          -21 200 -86 621 rlineto
          88 -12 -44 49 -111 hhcurveto
          -122 -93 -97 -23 -17 hvcurveto
          29 -70 21 15 25 14 23 -1 rlinecurve
          20 -1 13 -14 8 -41 110 -590 rcurveline
          endchar
        </CharString>
        <CharString name="w">
          450 -5 callgsubr
          hstemhm
          1445 245 hintmask 00000000
          hintmask 10011000
          320 -20 -50 callgsubr
          hintmask 01011000
          -86 callsubr
          hintmask 01101000
          -49 callsubr
          hintmask 01011000
          -69 callgsubr
          endchar
        </CharString>
        <CharString name="wacute">
          436 -5 callgsubr
          98 502 hstemhm
          893 484 65 245 hintmask 00001100
          971 1241 -87 callgsubr
          hintmask 00000000
          -576 -1332 -73 callgsubr
        </CharString>
        <CharString name="wcircumflex">
          450 -5 callgsubr
          85 432 hstemhm
          642 725 78 245 hintmask 00001100
          724 1229 -88 callgsubr
          hintmask 00000000
          -322 -1306 -73 callgsubr
        </CharString>
        <CharString name="wdieresis">
          450 -5 callgsubr
          220 313 hstemhm
          665 297 139 297 47 245 hintmask 00000000
          hintmask 00001110
          1230 1363 -99 callsubr
          hintmask 00000000
          -474 -1383 -50 callgsubr
          hintmask 10010001
          -86 callsubr
          hintmask 01010001
          -49 callsubr
          hintmask 01100001
          -69 callgsubr
          endchar
        </CharString>
        <CharString name="wgrave">
          436 -5 callgsubr
          103 497 hstemhm
          590 466 386 245 hintmask 00000000
          hintmask 10010010
          317 -20 -50 callgsubr
          hintmask 01010010
          -86 callsubr
          hintmask 01100010
          -49 callsubr
          hintmask 01010010
          -69 callgsubr
          hintmask 00001100
          728 891 -74 callsubr
        </CharString>
        <CharString name="x">
          -251 -20 165 -144 -21 41 -21 1008 155 -8 -20 28 -20 hstemhm
          -61 1132 hintmask 00000000
          hintmask 00100110
          -61 hmoveto
          263 hlineto
          258 403 116 -318 rlineto
          hintmask 01000110
          -63 23 37 -42 95 hhcurveto
          161 113 120 28 16 hvcurveto
          hintmask 10001010
          -40 69 rlineto
          -45 -55 -26 -7 -20 hhcurveto
          -27 -29 51 37 -19 hvcurveto
          -178 341 444 581 rlineto
          -259 hlineto
          -256 -393 -100 297 rlineto
          hintmask 00100110
          67 -23 -43 37 -98 hhcurveto
          -140 -106 -94 -24 -17 hvcurveto
          hintmask 00110010
          37 -69 rlineto
          26 37 19 6 26 hhcurveto
          26 18 -31 -38 20 hvcurveto
          174 -352 rlineto
          endchar
        </CharString>
        <CharString name="y">
          -21 callgsubr
          hstemhm
          812 245 hintmask 00000000
          hintmask 10110000
          -101 callsubr
          hintmask 11010000
          -66 callsubr
          hintmask 10110000
          -107 -90 51 15 -24 hvcurveto
          endchar
        </CharString>
        <CharString name="yacute">
          -21 callgsubr
          98 502 hstemhm
          497 484 -169 245 hintmask 00000000
          hintmask 10100100
          -101 callsubr
          hintmask 11000100
          -66 callsubr
          hintmask 10100100
          -107 -90 51 15 -24 hvcurveto
          hintmask 00011000
          649 1530 24 callgsubr
        </CharString>
</ttFont>
